<svg xmlns="http://www.w3.org/2000/svg" viewBox="0 0 372.01 160.5"><defs><style>.cls-1{fill:#f2f2f2;}</style></defs><title>LogoNegativo</title><g id="Capa_2" data-name="Capa 2"><g id="Negativo"><polygon class="cls-1" points="121.97 13.28 121.97 8.8 94.81 8.8 94.81 19.14 121.97 13.28"/><path class="cls-1" d="M122,40.16V23.43L94.81,29.28V40.16H66.62V67.32H94.81v10l3.36.73c2.1.59,2.75,1.06,3.69,2.76l11.48,15.47H122V67.32h28.19V40.16Z"/><polygon class="cls-1" points="94.81 21.89 94.81 26.36 121.97 20.51 121.97 16.03 94.81 21.89"/><path class="cls-1" d="M230.38,31.19H191.3a20.56,20.56,0,0,1,3.53,3.2,26.76,26.76,0,0,1,6.77,18.29q0,12.39-7.62,19.58a26.18,26.18,0,0,1-18.69,7.19H163.67V.4H130.82v38h20.77V69.21H130.82v37.34H179c17,0,29.07-3.18,39.71-13.11s14.69-24.1,14.69-40C233.38,45.61,232.72,38.13,230.38,31.19Z"/><path class="cls-1" d="M372,0,338.1,106.15H303.92c-5.31-14.66-24.21-66-24.21-66l34.9,0,6.6,24.53L338.75,0Z"/><polyline class="cls-1" points="230.61 26.7 311.34 26.7 302.85 0.4 167.28 0.4 167.28 26.7 230.61 26.7"/><rect class="cls-1" x="237.19" y="40.12" width="74.58" height="26.37"/><path class="cls-1" d="M298.42,106.49H205.2c12.89-6.4,23.61-14.29,27.76-26.7h57.2Z"/><path class="cls-1" d="M72.19,119.63a5.16,5.16,0,0,1-2.3-.2L21.56,106.2a5.18,5.18,0,0,1-3.85-4.09L.58,132.92a6,6,0,0,0,3.89,8.34l69.61,19a6.19,6.19,0,0,0,3.37.11Z"/><path class="cls-1" d="M78.41,160a6.54,6.54,0,0,0,2.6-2l36.4-46.89a6.16,6.16,0,0,0,.48-7.35l-16-21a5,5,0,0,1-1.12,3.11l-25.09,31.8a5.31,5.31,0,0,1-2.47,1.73Z"/><path class="cls-1" d="M97.78,79,49,68.16a4.38,4.38,0,0,0-4.32,1.32L19.59,98.82a3.94,3.94,0,0,0,2.2,6.4l48.3,13.23a4.32,4.32,0,0,0,5-1.64L100,85.22A3.86,3.86,0,0,0,97.78,79ZM46,87.61A12.23,12.23,0,0,0,50,88l-.49,1.48a14.63,14.63,0,0,1-4.87-.49c-4.73-1.19-6.78-4.49-4-9.07a13,13,0,0,1,14.17-5.44,8.57,8.57,0,0,1,3.81,1.72L57,77.59a7.41,7.41,0,0,0-3.18-1.51,9.65,9.65,0,0,0-10.76,4.31C40.88,83.82,41.9,86.57,46,87.61Zm11.53,4.33a7.66,7.66,0,0,1-2.13-.26,2.37,2.37,0,0,1-1.86-1.33c-.27-.67.11-1.59.92-2.73l3.85-5.47-2-.49,1-1.43,2,.49,1.78-2.52,2.66.06-2.17,3,3.32.83-1.05,1.42-3.3-.82-3.87,5.4c-.86,1.2-.92,2,.32,2.3a6.88,6.88,0,0,0,1.37.2Zm8.7-3.89-3.92,5.14-2.19-.55,5-6.7c.89-1.19,1.64-2.23,2.28-3.21l2,.51-1.45,2,.11,0a6.64,6.64,0,0,1,5.26-1.36,2.9,2.9,0,0,1,.62.23l-1.38,1.76a2.64,2.64,0,0,0-.74-.26A5.5,5.5,0,0,0,67,87.23,7.49,7.49,0,0,0,66.24,88.05Zm4.48,7.26-2.23-.56L80.22,80l2.39.6Z"/></g></g></svg>