<?xml version="1.0" encoding="utf-8"?>
<!-- Generator: Adobe Illustrator 25.2.0, SVG Export Plug-In . SVG Version: 6.00 Build 0)  -->
<svg version="1.1" xmlns="http://www.w3.org/2000/svg" xmlns:xlink="http://www.w3.org/1999/xlink" x="0px" y="0px"
	 viewBox="0 0 300 300" style="enable-background:new 0 0 300 300;" xml:space="preserve">
<style type="text/css">
	.st0{fill:#FADB01;}
	.st1{display:none;}
	.st2{display:inline;fill:#FADB01;}
	.st3{display:inline;}
	.st4{fill:#42210B;}
	.st5{fill:#99193A;stroke:#661127;stroke-miterlimit:10;}
	.st6{fill:#FFFFFF;}
	.st7{display:inline;fill:#FFFFFF;}
</style>
<g id="Layer_1_copy">
	<g>
		<g>
			<path class="st0" d="M32.16,166.43c0,0-6.54,10.76-10.77,14.08s2.52,8.76,6.65,8.46c4.13-0.3,4.13-3.02,4.13-3.02"/>
			<g>
				<path d="M30.86,165.67c-2.65,4.35-5.53,8.83-9.11,12.48c-0.98,1-2.22,1.77-2.82,3.08c-0.66,1.45-0.39,3.06,0.4,4.4
					c1.58,2.69,4.94,4.66,8.04,4.84c2.7,0.16,6.24-1.4,6.29-4.52c0.03-1.93-2.97-1.93-3,0c0,0.21,0.16-0.31-0.02,0.06
					c-0.12,0.26-0.06,0.33-0.33,0.61c-0.76,0.79-2.15,0.98-3.2,0.84c-2.01-0.28-5.01-1.92-5.51-4.07c-0.24-1.01,0.53-1.53,1.23-2.13
					c0.94-0.8,1.77-1.73,2.57-2.66c1.89-2.22,3.59-4.6,5.22-7.01c0.98-1.44,1.93-2.9,2.84-4.39
					C34.46,165.53,31.87,164.02,30.86,165.67L30.86,165.67z"/>
			</g>
		</g>
		<g id="_x31__15_">
			<path class="st0" d="M265.76,166.43v-11.9c0,0,10.27-1.11,12.38-11.58c0,0-0.3-12.89-12.38-12.59c0,0,7.85,0,7.1-6.04
				c-0.76-6.04-1.66-8.16-7.1-8.16c0,0,1.67-13.17-2.84-17.67c-0.01-0.01-0.01-0.01-0.02-0.02c-3.22-5.04-8.85-8.39-15.27-8.39
				h-10.27c0,0,3.32-13.69-27.19-6.85c0,0-7.85-10.68-29.91-1.92c0,0-5.14-23.76-29.91-6.24c0,0-4.17-9.36-15.08-9.36
				c-10.9,0-21.31,13.9-21.31,13.9H91.16c0,0-8.46,1.01-9.97,10.47c0,0-6.65-9.57-25.98-8.06c0,0-11.18-0.3-4.53,6.34
				c0,0-14.4-3.93-18.53,0c-4.13,3.93-13.39,17.22,0,14.5v5.34v15.2c0,0-6.21-0.13-6.98,5.37c0,0,4.06,7.62,1.64,11.24
				c-2.42,3.62-4.43,10.56,5.34,17.21v36v22.91c0,10.01,8.11,18.12,18.12,18.12h197.35c10.01,0,18.12-8.11,18.12-18.12v-25.98
				c0,0,12.38,7.55,14.2-9.36C279.96,180.81,268.18,171.68,265.76,166.43z"/>
			<g>
				<path d="M267.26,166.43c0-3.97,0-7.93,0-11.9c-0.5,0.5-1,1-1.5,1.5c5.23-0.58,10.27-4.01,12.52-8.78
					c0.62-1.32,1.35-2.96,1.35-4.44c0-0.69-0.14-1.42-0.25-2.1c-0.42-2.49-1.36-4.95-2.88-6.98c-2.58-3.43-6.52-4.93-10.74-4.87
					c-1.93,0.03-1.93,3.01,0,3c3.71-0.02,8.09-1.81,8.59-5.93c0.19-1.55-0.16-3.19-0.45-4.71c-0.25-1.26-0.6-2.57-1.3-3.66
					c-1.51-2.37-4.22-2.87-6.84-2.89c0.5,0.5,1,1,1.5,1.5c0.27-2.18,0.34-4.4,0.29-6.59c-0.09-3.57-0.45-7.65-2.44-10.72
					c-2.34-3.61-5.52-6.82-9.53-8.57c-3.2-1.4-6.46-1.69-9.89-1.69c-2.77,0-5.55,0-8.32,0c0.48,0.63,0.96,1.27,1.45,1.9
					c0.43-1.79,0.04-3.81-0.85-5.39c-2.32-4.12-7.69-5.1-11.99-5.25c-5.43-0.2-10.91,0.77-16.19,1.95c0.56,0.23,1.13,0.46,1.69,0.69
					c-4.05-5.46-12.38-6.58-18.61-5.95c-4.48,0.46-8.81,1.69-12.99,3.34c0.62,0.35,1.23,0.7,1.85,1.05
					c-0.59-2.68-1.9-5.38-3.53-7.57c-3.48-4.68-8.7-6.85-14.49-5.99c-5.15,0.77-9.89,3.48-14.09,6.43c0.68,0.18,1.37,0.36,2.05,0.54
					c-2.14-4.75-7.07-8.48-12.07-9.62c-8.58-1.97-16.24,3.02-22.13,8.79c-1.71,1.67-3.33,3.46-4.77,5.37
					c0.43-0.25,0.86-0.5,1.3-0.74c-5.17,0-10.34,0-15.51,0c-3.92,0-7.7-0.5-11.31,1.25c-4.09,1.98-6.65,5.91-7.41,10.33
					c0.91-0.12,1.83-0.24,2.74-0.36c-2.47-3.52-6.88-5.76-10.83-7.1c-4.68-1.58-9.74-2.03-14.65-1.81c-2.21,0.1-4.6,0.04-6.71,0.76
					c-1.41,0.48-2.77,1.36-3.13,2.9c-0.49,2.07,1.13,3.99,2.47,5.36c0.49-0.84,0.97-1.67,1.46-2.51c-2.38-0.65-4.83-1.09-7.28-1.42
					c-3.59-0.48-7.88-0.92-11.23,0.78c-2.46,1.24-4.37,4.17-5.85,6.4c-1.52,2.29-3.29,5.26-3,8.13c0.45,4.42,5.61,4.14,8.84,3.5
					c-0.63-0.48-1.27-0.96-1.9-1.45c0,6.85,0,13.69,0,20.54c0.5-0.5,1-1,1.5-1.5c-2.03-0.03-4.2,0.65-5.8,1.9
					c-1.34,1.05-2.25,2.56-2.57,4.24c-0.22,1.15,0.32,1.87,0.76,2.87c1.13,2.6,2.39,6.04,0.78,8.66c-1.42,2.32-2.23,5.05-1.92,7.78
					c0.56,4.88,4.13,8.49,8,11.16c-0.25-0.43-0.5-0.86-0.74-1.3c0,11.26,0,22.53,0,33.79c0,3.76,0,7.51,0,11.27
					c0,3.54,0,7.07,0,10.61c0,2.62-0.07,5.23,0.53,7.81c2.07,8.82,10.18,15.01,19.17,15.07c1.43,0.01,2.87,0,4.3,0
					c8.35,0,16.69,0,25.04,0c13.12,0,26.25,0,39.37,0c15.13,0,30.25,0,45.38,0c14.13,0,28.26,0,42.39,0c10.2,0,20.4,0,30.61,0
					c2.71,0,5.42,0,8.13,0c3.03,0,6-0.13,8.89-1.23c4.68-1.78,8.65-5.28,10.82-9.82c1.48-3.1,1.97-6.34,1.97-9.74
					c0-6.54,0-13.07,0-19.61c0-1.74,0-3.47,0-5.21c-0.75,0.43-1.5,0.86-2.26,1.3c3.27,1.98,7.95,2.77,11.28,0.55
					c3.41-2.27,4.59-6.57,5.08-10.41c0.2-1.54-0.41-1.9-1.45-2.74c-1.28-1.04-2.54-2.1-3.78-3.18c-1.82-1.59-3.59-3.24-5.26-4.99
					c-1.44-1.52-2.91-3.12-3.81-5.03c-0.83-1.74-3.42-0.22-2.59,1.51c1.75,3.67,5.17,6.68,8.13,9.36c2.03,1.85,4.13,3.64,6.3,5.32
					c-0.15-0.35-0.29-0.71-0.44-1.06c-0.3,2.62-0.88,5.65-2.68,7.7c-1.09,1.23-2.5,1.8-3.92,1.84c-1.37,0.04-2.44-0.24-3.85-0.75
					c-0.46-0.17-0.03,0.01-0.45-0.19c-0.18-0.08-0.36-0.17-0.54-0.26c-0.17-0.09-0.34-0.18-0.5-0.27c-0.98-0.59-2.26,0.17-2.26,1.3
					c0,5.87,0,11.74,0,17.61c0,2.68,0.01,5.37,0,8.05c-0.01,4.29-1.46,8.43-4.41,11.6c-3.58,3.85-8.34,5.35-13.45,5.35
					c-2.55,0-5.11,0-7.66,0c-10.49,0-20.98,0-31.48,0c-14.94,0-29.89,0-44.83,0c-15.83,0-31.65,0-47.48,0c-13.44,0-26.88,0-40.32,0
					c-7.5,0-15,0-22.5,0c-3.94,0-7.68-0.55-11.08-2.8c-4.43-2.93-7.22-7.99-7.38-13.29c-0.06-2.23-0.01-4.47-0.01-6.7
					c0-11.07,0-22.15,0-33.22c0-6.29,0-12.58,0-18.87c0-0.2,0.02-0.4,0-0.6c-0.11-1.19-1.12-1.58-1.98-2.25
					c-2.16-1.68-4.21-3.84-5-6.52c-0.51-1.72-0.42-3.49,0.15-5.19c0.57-1.71,1.85-3.05,2.14-4.87c0.56-3.51-0.87-7.38-2.49-10.44
					c0.05,0.39,0.1,0.77,0.15,1.16c0.3-1.83,1.27-3.17,3.03-3.81c0.98-0.36,1.59-0.47,2.5-0.46c0.81,0.01,1.5-0.7,1.5-1.5
					c0-6.85,0-13.69,0-20.54c0-1.03-0.95-1.63-1.9-1.45c-1.34,0.26-3.04,0.61-4.37,0.07c-0.54-0.22-0.72-0.55-0.71-1.21
					c0.02-2.1,1.58-4.55,2.82-6.37c1.18-1.74,2.76-4.28,4.78-5.13c2.77-1.17,6.37-0.7,9.25-0.31c2.27,0.31,4.55,0.75,6.76,1.35
					c1.45,0.39,2.5-1.44,1.46-2.51c-0.56-0.57-1.19-1.2-1.52-1.95c-0.05-0.11-0.16-0.5-0.16-0.49c0,0.02,0.06-0.21,0.01-0.15
					c0.12-0.16,0.2-0.29,0.62-0.49c0.24-0.11,0.83-0.31,1.29-0.41c1.76-0.4,4.11-0.39,6.1-0.44c6.73-0.16,14.27,1.14,19.53,5.27
					c0.67,0.53,1.31,1.11,1.89,1.73c0.15,0.17,0.3,0.34,0.45,0.52c0.19,0.22-0.25-0.35-0.05-0.06c0.66,0.94,2.5,1.03,2.74-0.36
					c0.6-3.51,2.32-6.53,5.5-8.26c0.84-0.45,1.67-0.78,2.64-1.01c0.23-0.06,0.46-0.09,0.69-0.14c0.08-0.01-0.54-0.01-0.18,0.04
					c1.78,0.25,3.77,0,5.56,0c3.11,0,6.23,0,9.34,0c2.34,0,4.67,0,7.01,0c0.89,0,1.37-0.03,2.08-0.74c0.2-0.2-0.28,0.34,0.07-0.09
					c0.26-0.32,0.51-0.63,0.78-0.95c4.41-5.23,10.51-11.09,17.59-12.02c6.17-0.81,12.78,2.82,15.35,8.53
					c0.31,0.7,1.44,0.97,2.05,0.54c5.34-3.74,13.01-8.24,19.69-5.38c1.87,0.8,3.57,2.28,4.7,3.74c0.59,0.76,1.1,1.58,1.55,2.42
					c0.2,0.36,0.38,0.73,0.55,1.1c0.08,0.17,0.16,0.35,0.24,0.52c0.03,0.08,0.14,0.34,0.02,0.03c0.04,0.11,0.09,0.21,0.13,0.32
					c0.33,0.84,0.64,1.7,0.83,2.58c0.16,0.73,1.12,1.33,1.85,1.05c5.91-2.32,12.48-4.11,18.89-3.17c1.85,0.27,3.74,0.79,5.38,1.58
					c0.64,0.31,1.26,0.66,1.85,1.05c0.24,0.16,0.48,0.32,0.71,0.5c0.24,0.18-0.14-0.12,0.07,0.06c0.11,0.09,0.22,0.18,0.33,0.28
					c0.31,0.27,0.6,0.55,0.88,0.84c0.15,0.16,0.53,0.67,0.1,0.09c0.42,0.57,0.99,0.85,1.69,0.69c4.51-1,9.11-1.81,13.75-1.86
					c2.62-0.03,5.34,0.16,7.79,1.14c0.18,0.07,0.6,0.27,0.95,0.46c0.18,0.1,0.36,0.21,0.53,0.32c0.09,0.06,0.58,0.42,0.32,0.21
					c0.28,0.22,0.54,0.46,0.78,0.71c0.11,0.12,0.22,0.24,0.32,0.37c-0.12-0.14,0-0.03,0.13,0.19c0.15,0.25,0.29,0.49,0.42,0.75
					c0.2,0.38-0.02-0.08,0.04,0.09c0.05,0.13,0.1,0.27,0.14,0.4c0.07,0.23,0.11,0.46,0.17,0.7c0.06,0.24,0.03,0.23,0-0.04
					c0.01,0.11,0.03,0.23,0.03,0.34c0.01,0.38-0.01,0.75-0.02,1.14c0,0.15,0.09-0.39-0.02,0.07c-0.23,0.94,0.45,1.9,1.45,1.9
					c2.21,0,4.42,0,6.63,0c2.74,0,5.48-0.13,8.16,0.62c2.11,0.6,4.11,1.61,5.83,2.99c1.66,1.33,2.8,2.99,4.12,4.61
					c2.02,2.46,2.31,6.16,2.43,9.21c0.09,2.37,0.02,4.79-0.27,7.15c-0.1,0.81,0.77,1.49,1.5,1.5c1.69,0.01,3.59,0.11,4.46,1.78
					c0.44,0.84,0.63,1.81,0.81,2.73c0.21,1.12,0.52,2.4,0.34,3.54c-0.25,1.54-1.65,2.34-3.03,2.75c-1.04,0.3-1.58,0.4-2.58,0.41
					c0,1,0,2,0,3c3.05-0.05,5.94,0.81,7.97,3.18c1.39,1.62,2.19,3.69,2.62,5.76c0.08,0.38,0.15,0.76,0.2,1.15
					c-0.01-0.09,0-0.08,0.02,0.19c0.01,0.14,0.03,0.27,0.04,0.41c0.03,0.8-0.28,1.52-0.58,2.35c-1.07,2.9-3.23,5.19-5.93,6.63
					c-1.02,0.54-2.1,0.95-3.21,1.24c-0.36,0.09-0.72,0.16-1.08,0.24c-0.33,0.07-0.47,0.06-0.06,0.02c-0.81,0.09-1.5,0.61-1.5,1.5
					c0,3.97,0,7.93,0,11.9C264.26,168.36,267.26,168.36,267.26,166.43z"/>
			</g>
		</g>
		<g class="st1">
			<path class="st2" d="M266.59,230.08l-0.83-13.92v-25.98c0,0,12.38,7.55,14.2-9.36c0,0-11.78-9.13-14.2-14.38v-11.9
				c0,0,10.27-1.11,12.38-11.58c0,0-0.3-12.89-12.38-12.59c0,0,7.85,0,7.1-6.04c-0.76-6.04-1.66-8.16-7.1-8.16
				c0,0,1.67-13.17-2.84-17.67c-0.01-0.01-0.01-0.01-0.02-0.02c-3.22-5.04-8.85-8.39-15.27-8.39h-10.27c0,0,3.32-13.69-27.19-6.85
				c0,0-7.85-10.68-29.91-1.92c0,0-5.14-23.76-29.91-6.24c0,0-4.17-9.36-15.08-9.36c-10.9,0-21.31,13.9-21.31,13.9H91.16
				c0,0-8.46,1.01-9.97,10.47c0,0-6.65-9.57-25.98-8.06c0,0-11.18-0.3-4.53,6.34c0,0-14.4-3.93-18.53,0
				c-4.13,3.93-13.39,17.22,0,14.5v5.34v15.2c0,0-6.21-0.13-6.98,5.37c0,0,4.06,7.62,1.64,11.24c-2.42,3.62-4.43,10.56,5.34,17.21
				v36v22.91c0,10.01,8.11,18.12,18.12,18.12h161.11"/>
			<g class="st3">
				<path d="M268.09,230.08c-0.28-4.72-0.76-9.46-0.83-14.18c-0.1-6.25,0-12.51,0-18.76c0-2.32,0-4.64,0-6.96
					c-0.75,0.43-1.5,0.86-2.26,1.3c1.79,1.09,3.98,1.74,6.06,1.87c4.36,0.27,7.53-2.58,9.06-6.47c0.57-1.44,0.91-2.95,1.13-4.48
					c0.16-1.08,0.4-2.06-0.48-2.84c-1.37-1.21-2.84-2.3-4.22-3.5c-2.15-1.87-4.26-3.81-6.19-5.9c-0.84-0.91-1.66-1.84-2.36-2.87
					c-0.24-0.34-0.5-1.09-0.81-1.35c-0.18-0.15,0.04,0.49,0.07,0.42c0.03-0.06,0-0.2,0-0.26c0.15-2.1,0-4.27,0-6.38
					c0-1.73,0-3.46,0-5.2c-0.5,0.5-1,1-1.5,1.5c5.23-0.58,10.27-4.01,12.52-8.78c0.62-1.32,1.35-2.96,1.35-4.44
					c0-0.69-0.14-1.42-0.25-2.1c-0.42-2.49-1.36-4.95-2.88-6.98c-2.58-3.43-6.52-4.93-10.74-4.87c-1.93,0.03-1.93,3.01,0,3
					c3.71-0.02,8.09-1.81,8.59-5.93c0.19-1.55-0.16-3.19-0.45-4.71c-0.25-1.26-0.6-2.57-1.3-3.66c-1.51-2.37-4.22-2.87-6.84-2.89
					c0.5,0.5,1,1,1.5,1.5c0.27-2.18,0.34-4.4,0.29-6.59c-0.09-3.57-0.45-7.65-2.44-10.72c-2.34-3.61-5.52-6.82-9.53-8.57
					c-3.2-1.4-6.46-1.69-9.89-1.69c-2.77,0-5.55,0-8.32,0c0.48,0.63,0.96,1.27,1.45,1.9c0.43-1.79,0.04-3.81-0.85-5.39
					c-2.32-4.12-7.69-5.1-11.99-5.25c-5.43-0.2-10.91,0.77-16.19,1.95c0.56,0.23,1.13,0.46,1.69,0.69
					c-4.05-5.46-12.38-6.58-18.61-5.95c-4.48,0.46-8.81,1.69-12.99,3.34c0.62,0.35,1.23,0.7,1.85,1.05
					c-0.59-2.68-1.9-5.38-3.53-7.57c-3.48-4.68-8.7-6.85-14.49-5.99c-5.15,0.77-9.89,3.48-14.09,6.43c0.68,0.18,1.37,0.36,2.05,0.54
					c-2.14-4.75-7.07-8.48-12.07-9.62c-8.58-1.97-16.24,3.02-22.13,8.79c-1.71,1.67-3.33,3.46-4.77,5.37
					c0.43-0.25,0.86-0.5,1.3-0.74c-5.17,0-10.34,0-15.51,0c-3.92,0-7.7-0.5-11.31,1.25c-4.09,1.98-6.65,5.91-7.41,10.33
					c0.91-0.12,1.83-0.24,2.74-0.36c-2.47-3.52-6.88-5.76-10.83-7.1c-4.68-1.58-9.74-2.03-14.65-1.81c-2.21,0.1-4.6,0.04-6.71,0.76
					c-1.41,0.48-2.77,1.36-3.13,2.9c-0.49,2.07,1.13,3.99,2.47,5.36c0.49-0.84,0.97-1.67,1.46-2.51c-2.38-0.65-4.83-1.09-7.28-1.42
					c-3.59-0.48-7.88-0.92-11.23,0.78c-2.46,1.24-4.37,4.17-5.85,6.4c-1.52,2.29-3.29,5.26-3,8.13c0.45,4.42,5.61,4.14,8.84,3.5
					c-0.63-0.48-1.27-0.96-1.9-1.45c0,6.85,0,13.69,0,20.54c0.5-0.5,1-1,1.5-1.5c-2.03-0.03-4.2,0.65-5.8,1.9
					c-1.34,1.05-2.25,2.56-2.57,4.24c-0.22,1.15,0.32,1.87,0.76,2.87c1.13,2.6,2.39,6.04,0.78,8.66c-1.42,2.32-2.23,5.05-1.92,7.78
					c0.56,4.88,4.13,8.49,8,11.16c-0.25-0.43-0.5-0.86-0.74-1.3c0,8.44,0,16.88,0,25.32c0,6.66,0,13.32,0,19.98
					c0,4.45-0.01,8.9,0,13.35c0.02,6.92,3.49,13.41,9.43,17.04c3.31,2.02,7.06,2.85,10.91,2.85c1.55,0,3.11,0,4.66,0
					c6.74,0,13.48,0,20.22,0c9.99,0,19.99,0,29.98,0c11.33,0,22.66,0,33.99,0c10.88,0,21.76,0,32.64,0c8.51,0,17.02,0,25.53,0
					c4.26,0,8.53,0,12.79,0c0.19,0,0.38,0,0.57,0c1.93,0,1.93-3,0-3c-3.44,0-6.89,0-10.33,0c-8.75,0-17.5,0-26.26,0
					c-11.65,0-23.29,0-34.94,0c-12.22,0-24.44,0-36.65,0c-10.44,0-20.88,0-31.32,0c-6.33,0-12.66,0-18.99,0
					c-1.1,0-2.21,0.03-3.32-0.01c-8.34-0.32-15.4-7.2-15.88-15.55c-0.25-4.36-0.03-8.79-0.03-13.16c0-3.66,0-7.31,0-10.97
					c0-9.75,0-19.49,0-29.24c0-1.87,0-3.75,0-5.62c0-0.32,0.03-0.65,0-0.97c-0.1-1-0.79-1.33-1.54-1.88
					c-1.04-0.76-2.02-1.63-2.9-2.58c-2.29-2.49-3.5-5.71-2.53-9.03c0.35-1.18,0.97-2.13,1.56-3.2c0.9-1.62,0.95-3.48,0.69-5.26
					c-0.36-2.52-1.28-5.03-2.47-7.27c0.05,0.39,0.1,0.77,0.15,1.16c0.3-1.83,1.27-3.17,3.03-3.81c0.98-0.36,1.59-0.47,2.5-0.46
					c0.81,0.01,1.5-0.7,1.5-1.5c0-6.85,0-13.69,0-20.54c0-1.03-0.95-1.63-1.9-1.45c-1.34,0.26-3.04,0.61-4.37,0.07
					c-0.54-0.22-0.72-0.55-0.71-1.21c0.02-2.1,1.58-4.55,2.82-6.37c1.18-1.74,2.76-4.28,4.78-5.13c2.77-1.17,6.37-0.7,9.25-0.31
					c2.27,0.31,4.55,0.75,6.76,1.35c1.45,0.39,2.5-1.44,1.46-2.51c-0.56-0.57-1.19-1.2-1.52-1.95c-0.05-0.11-0.16-0.5-0.16-0.49
					c0,0.02,0.06-0.21,0.01-0.15c0.12-0.16,0.2-0.29,0.62-0.49c0.24-0.11,0.83-0.31,1.29-0.41c1.76-0.4,4.11-0.39,6.1-0.44
					c6.73-0.16,14.27,1.14,19.53,5.27c0.67,0.53,1.31,1.11,1.89,1.73c0.15,0.17,0.3,0.34,0.45,0.52c0.19,0.22-0.25-0.35-0.05-0.06
					c0.66,0.94,2.5,1.03,2.74-0.36c0.6-3.51,2.32-6.53,5.5-8.26c0.84-0.45,1.67-0.78,2.64-1.01c0.23-0.06,0.46-0.09,0.69-0.14
					c0.08-0.01-0.54-0.01-0.18,0.04c1.78,0.25,3.77,0,5.56,0c3.11,0,6.23,0,9.34,0c2.34,0,4.67,0,7.01,0c0.89,0,1.37-0.03,2.08-0.74
					c0.2-0.2-0.28,0.34,0.07-0.09c0.26-0.32,0.51-0.63,0.78-0.95c4.41-5.23,10.51-11.09,17.59-12.02
					c6.17-0.81,12.78,2.82,15.35,8.53c0.31,0.7,1.44,0.97,2.05,0.54c5.34-3.74,13.01-8.24,19.69-5.38c1.87,0.8,3.57,2.28,4.7,3.74
					c0.59,0.76,1.1,1.58,1.55,2.42c0.2,0.36,0.38,0.73,0.55,1.1c0.08,0.17,0.16,0.35,0.24,0.52c0.03,0.08,0.14,0.34,0.02,0.03
					c0.04,0.11,0.09,0.21,0.13,0.32c0.33,0.84,0.64,1.7,0.83,2.58c0.16,0.73,1.12,1.33,1.85,1.05c5.91-2.32,12.48-4.11,18.89-3.17
					c1.85,0.27,3.74,0.79,5.38,1.58c0.64,0.31,1.26,0.66,1.85,1.05c0.24,0.16,0.48,0.32,0.71,0.5c0.24,0.18-0.14-0.12,0.07,0.06
					c0.11,0.09,0.22,0.18,0.33,0.28c0.31,0.27,0.6,0.55,0.88,0.84c0.15,0.16,0.53,0.67,0.1,0.09c0.42,0.57,0.99,0.85,1.69,0.69
					c4.51-1,9.11-1.81,13.75-1.86c2.62-0.03,5.34,0.16,7.79,1.14c0.18,0.07,0.6,0.27,0.95,0.46c0.18,0.1,0.36,0.21,0.53,0.32
					c0.09,0.06,0.58,0.42,0.32,0.21c0.28,0.22,0.54,0.46,0.78,0.71c0.11,0.12,0.22,0.24,0.32,0.37c-0.12-0.14,0-0.03,0.13,0.19
					c0.15,0.25,0.29,0.49,0.42,0.75c0.2,0.38-0.02-0.08,0.04,0.09c0.05,0.13,0.1,0.27,0.14,0.4c0.07,0.23,0.11,0.46,0.17,0.7
					c0.06,0.24,0.03,0.23,0-0.04c0.01,0.11,0.03,0.23,0.03,0.34c0.01,0.38-0.01,0.75-0.02,1.14c0,0.15,0.09-0.39-0.02,0.07
					c-0.23,0.94,0.45,1.9,1.45,1.9c2.21,0,4.42,0,6.63,0c2.74,0,5.48-0.13,8.16,0.62c2.11,0.6,4.11,1.61,5.83,2.99
					c1.66,1.33,2.8,2.99,4.12,4.61c2.02,2.46,2.31,6.16,2.43,9.21c0.09,2.37,0.02,4.79-0.27,7.15c-0.1,0.81,0.77,1.49,1.5,1.5
					c1.69,0.01,3.59,0.11,4.46,1.78c0.44,0.84,0.63,1.81,0.81,2.73c0.21,1.12,0.52,2.4,0.34,3.54c-0.25,1.54-1.65,2.34-3.03,2.75
					c-1.04,0.3-1.58,0.4-2.58,0.41c0,1,0,2,0,3c3.05-0.05,5.94,0.81,7.97,3.18c1.39,1.62,2.19,3.69,2.62,5.76
					c0.08,0.38,0.15,0.76,0.2,1.15c-0.01-0.09,0-0.08,0.02,0.19c0.01,0.14,0.03,0.27,0.04,0.41c0.03,0.8-0.28,1.53-0.58,2.35
					c-1.07,2.9-3.23,5.19-5.93,6.63c-1.02,0.54-2.1,0.95-3.21,1.24c-0.36,0.09-0.72,0.16-1.08,0.24c-0.33,0.07-0.47,0.06-0.06,0.02
					c-0.81,0.09-1.5,0.61-1.5,1.5c0,3.82-0.08,7.66,0,11.48c0.05,2.1,2.07,4.13,3.39,5.62c2.09,2.35,4.41,4.49,6.78,6.55
					c1.46,1.27,2.94,2.51,4.47,3.69c-0.15-0.35-0.29-0.71-0.44-1.06c-0.3,2.62-0.88,5.65-2.68,7.7c-1.09,1.23-2.5,1.8-3.92,1.84
					c-1.37,0.04-2.44-0.24-3.85-0.75c-0.46-0.17-0.03,0.01-0.45-0.19c-0.18-0.08-0.36-0.17-0.54-0.26c-0.17-0.09-0.34-0.18-0.5-0.27
					c-0.98-0.59-2.26,0.17-2.26,1.3c0,10.11-0.34,20.26,0.26,30.35c0.19,3.18,0.38,6.37,0.57,9.55
					C265.2,232,268.21,232.01,268.09,230.08L268.09,230.08z"/>
			</g>
		</g>
		<g>
			<g>
				<path d="M49.56,185.95c0,4.38,0,8.77,0,13.15c0,0.91-0.09,1.84,0.15,2.72c0.4,1.51,1.27,2.9,2.28,4.06
					c4.15,4.77,11.2,5.56,17.14,5.35c7.07-0.25,14.12-1.36,21.12-2.34c18.43-2.57,36.92-5.35,55.58-4.86
					c18.74,0.5,37.41,2.22,56.13,3.15c5.63,0.28,11.17,0.45,16.76-0.4c6.24-0.95,12.37-3.59,13.94-10.31c0.46-1.97,0.52-4,0.4-6.01
					c-0.09-1.44-2.34-1.45-2.25,0c0.21,3.39-0.1,7.1-2.45,9.76c-1.93,2.18-4.73,3.23-7.5,3.87c-5.27,1.21-10.63,1.18-16,0.97
					c-17.56-0.7-35.06-2.38-52.62-3.07c-9.21-0.36-18.34-0.32-27.53,0.43c-9.07,0.74-18.09,1.93-27.1,3.18
					c-7.62,1.06-15.23,2.25-22.89,2.98c-6.01,0.57-12.88,1.19-18.31-1.99c-1.73-1.01-3.17-2.42-4.08-4.21
					c-0.22-0.42-0.31-0.72-0.48-1.29c-0.03-0.1-0.05-0.21-0.07-0.32c0.01,0.06,0.01,0.42,0.03,0.08c0.17-1.97,0-4.03,0-6
					c0-2.51,0-5.02,0-7.53c0-0.46,0-0.92,0-1.38C51.81,184.5,49.56,184.5,49.56,185.95L49.56,185.95z"/>
			</g>
		</g>
		<path class="st4" d="M129.68,186.55h15.71c0,0,19.41-1.59,2.04,11.03c0,0-8.84,6.27-20.01-1.36
			C127.41,196.22,113.97,186.55,129.68,186.55z"/>
		<ellipse class="st5" cx="75.91" cy="162.38" rx="11.33" ry="14.35"/>
		<ellipse class="st6" cx="71.23" cy="160.72" rx="5.74" ry="8.16"/>
		<ellipse class="st5" cx="205.32" cy="159.11" rx="13.72" ry="16.16"/>
		<ellipse class="st6" cx="199.65" cy="157.24" rx="6.95" ry="9.19"/>
	</g>
	<g>
		<g>
			<path class="st6" d="M32.16,166.43c0,0-6.54,10.76-10.77,14.08s2.52,8.76,6.65,8.46c4.13-0.3,4.13-3.02,4.13-3.02"/>
			<g>
				<path class="st6" d="M30.86,165.67c-2.65,4.35-5.53,8.83-9.11,12.48c-0.98,1-2.22,1.77-2.82,3.08c-0.66,1.45-0.39,3.06,0.4,4.4
					c1.58,2.69,4.94,4.66,8.04,4.84c2.7,0.16,6.24-1.4,6.29-4.52c0.03-1.93-2.97-1.93-3,0c0,0.21,0.16-0.31-0.02,0.06
					c-0.12,0.26-0.06,0.33-0.33,0.61c-0.76,0.79-2.15,0.98-3.2,0.84c-2.01-0.28-5.01-1.92-5.51-4.07c-0.24-1.01,0.53-1.53,1.23-2.13
					c0.94-0.8,1.77-1.73,2.57-2.66c1.89-2.22,3.59-4.6,5.22-7.01c0.98-1.44,1.93-2.9,2.84-4.39
					C34.46,165.53,31.87,164.02,30.86,165.67L30.86,165.67z"/>
			</g>
		</g>
		<g id="_x31__14_">
			<path class="st6" d="M265.76,166.43v-11.9c0,0,10.27-1.11,12.38-11.58c0,0-0.3-12.89-12.38-12.59c0,0,7.85,0,7.1-6.04
				c-0.76-6.04-1.66-8.16-7.1-8.16c0,0,1.67-13.17-2.84-17.67c-0.01-0.01-0.01-0.01-0.02-0.02c-3.22-5.04-8.85-8.39-15.27-8.39
				h-10.27c0,0,3.32-13.69-27.19-6.85c0,0-7.85-10.68-29.91-1.92c0,0-5.14-23.76-29.91-6.24c0,0-4.17-9.36-15.08-9.36
				c-10.9,0-21.31,13.9-21.31,13.9H91.16c0,0-8.46,1.01-9.97,10.47c0,0-6.65-9.57-25.98-8.06c0,0-11.18-0.3-4.53,6.34
				c0,0-14.4-3.93-18.53,0c-4.13,3.93-13.39,17.22,0,14.5v5.34v15.2c0,0-6.21-0.13-6.98,5.37c0,0,4.06,7.62,1.64,11.24
				c-2.42,3.62-4.43,10.56,5.34,17.21v36v22.91c0,10.01,8.11,18.12,18.12,18.12h197.35c10.01,0,18.12-8.11,18.12-18.12v-25.98
				c0,0,12.38,7.55,14.2-9.36C279.96,180.81,268.18,171.68,265.76,166.43z"/>
			<g>
				<path class="st6" d="M267.26,166.43c0-3.97,0-7.93,0-11.9c-0.5,0.5-1,1-1.5,1.5c5.23-0.58,10.27-4.01,12.52-8.78
					c0.62-1.32,1.35-2.96,1.35-4.44c0-0.69-0.14-1.42-0.25-2.1c-0.42-2.49-1.36-4.95-2.88-6.98c-2.58-3.43-6.52-4.93-10.74-4.87
					c-1.93,0.03-1.93,3.01,0,3c3.71-0.02,8.09-1.81,8.59-5.93c0.19-1.55-0.16-3.19-0.45-4.71c-0.25-1.26-0.6-2.57-1.3-3.66
					c-1.51-2.37-4.22-2.87-6.84-2.89c0.5,0.5,1,1,1.5,1.5c0.27-2.18,0.34-4.4,0.29-6.59c-0.09-3.57-0.45-7.65-2.44-10.72
					c-2.34-3.61-5.52-6.82-9.53-8.57c-3.2-1.4-6.46-1.69-9.89-1.69c-2.77,0-5.55,0-8.32,0c0.48,0.63,0.96,1.27,1.45,1.9
					c0.43-1.79,0.04-3.81-0.85-5.39c-2.32-4.12-7.69-5.1-11.99-5.25c-5.43-0.2-10.91,0.77-16.19,1.95c0.56,0.23,1.13,0.46,1.69,0.69
					c-4.05-5.46-12.38-6.58-18.61-5.95c-4.48,0.46-8.81,1.69-12.99,3.34c0.62,0.35,1.23,0.7,1.85,1.05
					c-0.59-2.68-1.9-5.38-3.53-7.57c-3.48-4.68-8.7-6.85-14.49-5.99c-5.15,0.77-9.89,3.48-14.09,6.43c0.68,0.18,1.37,0.36,2.05,0.54
					c-2.14-4.75-7.07-8.48-12.07-9.62c-8.58-1.97-16.24,3.02-22.13,8.79c-1.71,1.67-3.33,3.46-4.77,5.37
					c0.43-0.25,0.86-0.5,1.3-0.74c-5.17,0-10.34,0-15.51,0c-3.92,0-7.7-0.5-11.31,1.25c-4.09,1.98-6.65,5.91-7.41,10.33
					c0.91-0.12,1.83-0.24,2.74-0.36c-2.47-3.52-6.88-5.76-10.83-7.1c-4.68-1.58-9.74-2.03-14.65-1.81c-2.21,0.1-4.6,0.04-6.71,0.76
					c-1.41,0.48-2.77,1.36-3.13,2.9c-0.49,2.07,1.13,3.99,2.47,5.36c0.49-0.84,0.97-1.67,1.46-2.51c-2.38-0.65-4.83-1.09-7.28-1.42
					c-3.59-0.48-7.88-0.92-11.23,0.78c-2.46,1.24-4.37,4.17-5.85,6.4c-1.52,2.29-3.29,5.26-3,8.13c0.45,4.42,5.61,4.14,8.84,3.5
					c-0.63-0.48-1.27-0.96-1.9-1.45c0,6.85,0,13.69,0,20.54c0.5-0.5,1-1,1.5-1.5c-2.03-0.03-4.2,0.65-5.8,1.9
					c-1.34,1.05-2.25,2.56-2.57,4.24c-0.22,1.15,0.32,1.87,0.76,2.87c1.13,2.6,2.39,6.04,0.78,8.66c-1.42,2.32-2.23,5.05-1.92,7.78
					c0.56,4.88,4.13,8.49,8,11.16c-0.25-0.43-0.5-0.86-0.74-1.3c0,11.26,0,22.53,0,33.79c0,3.76,0,7.51,0,11.27
					c0,3.54,0,7.07,0,10.61c0,2.62-0.07,5.23,0.53,7.81c2.07,8.82,10.18,15.01,19.17,15.07c1.43,0.01,2.87,0,4.3,0
					c8.35,0,16.69,0,25.04,0c13.12,0,26.25,0,39.37,0c15.13,0,30.25,0,45.38,0c14.13,0,28.26,0,42.39,0c10.2,0,20.4,0,30.61,0
					c2.71,0,5.42,0,8.13,0c3.03,0,6-0.13,8.89-1.23c4.68-1.78,8.65-5.28,10.82-9.82c1.48-3.1,1.97-6.34,1.97-9.74
					c0-6.54,0-13.07,0-19.61c0-1.74,0-3.47,0-5.21c-0.75,0.43-1.5,0.86-2.26,1.3c3.27,1.98,7.95,2.77,11.28,0.55
					c3.41-2.27,4.59-6.57,5.08-10.41c0.2-1.54-0.41-1.9-1.45-2.74c-1.28-1.04-2.54-2.1-3.78-3.18c-1.82-1.59-3.59-3.24-5.26-4.99
					c-1.44-1.52-2.91-3.12-3.81-5.03c-0.83-1.74-3.42-0.22-2.59,1.51c1.75,3.67,5.17,6.68,8.13,9.36c2.03,1.85,4.13,3.64,6.3,5.32
					c-0.15-0.35-0.29-0.71-0.44-1.06c-0.3,2.62-0.88,5.65-2.68,7.7c-1.09,1.23-2.5,1.8-3.92,1.84c-1.37,0.04-2.44-0.24-3.85-0.75
					c-0.46-0.17-0.03,0.01-0.45-0.19c-0.18-0.08-0.36-0.17-0.54-0.26c-0.17-0.09-0.34-0.18-0.5-0.27c-0.98-0.59-2.26,0.17-2.26,1.3
					c0,5.87,0,11.74,0,17.61c0,2.68,0.01,5.37,0,8.05c-0.01,4.29-1.46,8.43-4.41,11.6c-3.58,3.85-8.34,5.35-13.45,5.35
					c-2.55,0-5.11,0-7.66,0c-10.49,0-20.98,0-31.48,0c-14.94,0-29.89,0-44.83,0c-15.83,0-31.65,0-47.48,0c-13.44,0-26.88,0-40.32,0
					c-7.5,0-15,0-22.5,0c-3.94,0-7.68-0.55-11.08-2.8c-4.43-2.93-7.22-7.99-7.38-13.29c-0.06-2.23-0.01-4.47-0.01-6.7
					c0-11.07,0-22.15,0-33.22c0-6.29,0-12.58,0-18.87c0-0.2,0.02-0.4,0-0.6c-0.11-1.19-1.12-1.58-1.98-2.25
					c-2.16-1.68-4.21-3.84-5-6.52c-0.51-1.72-0.42-3.49,0.15-5.19c0.57-1.71,1.85-3.05,2.14-4.87c0.56-3.51-0.87-7.38-2.49-10.44
					c0.05,0.39,0.1,0.77,0.15,1.16c0.3-1.83,1.27-3.17,3.03-3.81c0.98-0.36,1.59-0.47,2.5-0.46c0.81,0.01,1.5-0.7,1.5-1.5
					c0-6.85,0-13.69,0-20.54c0-1.03-0.95-1.63-1.9-1.45c-1.34,0.26-3.04,0.61-4.37,0.07c-0.54-0.22-0.72-0.55-0.71-1.21
					c0.02-2.1,1.58-4.55,2.82-6.37c1.18-1.74,2.76-4.28,4.78-5.13c2.77-1.17,6.37-0.7,9.25-0.31c2.27,0.31,4.55,0.75,6.76,1.35
					c1.45,0.39,2.5-1.44,1.46-2.51c-0.56-0.57-1.19-1.2-1.52-1.95c-0.05-0.11-0.16-0.5-0.16-0.49c0,0.02,0.06-0.21,0.01-0.15
					c0.12-0.16,0.2-0.29,0.62-0.49c0.24-0.11,0.83-0.31,1.29-0.41c1.76-0.4,4.11-0.39,6.1-0.44c6.73-0.16,14.27,1.14,19.53,5.27
					c0.67,0.53,1.31,1.11,1.89,1.73c0.15,0.17,0.3,0.34,0.45,0.52c0.19,0.22-0.25-0.35-0.05-0.06c0.66,0.94,2.5,1.03,2.74-0.36
					c0.6-3.51,2.32-6.53,5.5-8.26c0.84-0.45,1.67-0.78,2.64-1.01c0.23-0.06,0.46-0.09,0.69-0.14c0.08-0.01-0.54-0.01-0.18,0.04
					c1.78,0.25,3.77,0,5.56,0c3.11,0,6.23,0,9.34,0c2.34,0,4.67,0,7.01,0c0.89,0,1.37-0.03,2.08-0.74c0.2-0.2-0.28,0.34,0.07-0.09
					c0.26-0.32,0.51-0.63,0.78-0.95c4.41-5.23,10.51-11.09,17.59-12.02c6.17-0.81,12.78,2.82,15.35,8.53
					c0.31,0.7,1.44,0.97,2.05,0.54c5.34-3.74,13.01-8.24,19.69-5.38c1.87,0.8,3.57,2.28,4.7,3.74c0.59,0.76,1.1,1.58,1.55,2.42
					c0.2,0.36,0.38,0.73,0.55,1.1c0.08,0.17,0.16,0.35,0.24,0.52c0.03,0.08,0.14,0.34,0.02,0.03c0.04,0.11,0.09,0.21,0.13,0.32
					c0.33,0.84,0.64,1.7,0.83,2.58c0.16,0.73,1.12,1.33,1.85,1.05c5.91-2.32,12.48-4.11,18.89-3.17c1.85,0.27,3.74,0.79,5.38,1.58
					c0.64,0.31,1.26,0.66,1.85,1.05c0.24,0.16,0.48,0.32,0.71,0.5c0.24,0.18-0.14-0.12,0.07,0.06c0.11,0.09,0.22,0.18,0.33,0.28
					c0.31,0.27,0.6,0.55,0.88,0.84c0.15,0.16,0.53,0.67,0.1,0.09c0.42,0.57,0.99,0.85,1.69,0.69c4.51-1,9.11-1.81,13.75-1.86
					c2.62-0.03,5.34,0.16,7.79,1.14c0.18,0.07,0.6,0.27,0.95,0.46c0.18,0.1,0.36,0.21,0.53,0.32c0.09,0.06,0.58,0.42,0.32,0.21
					c0.28,0.22,0.54,0.46,0.78,0.71c0.11,0.12,0.22,0.24,0.32,0.37c-0.12-0.14,0-0.03,0.13,0.19c0.15,0.25,0.29,0.49,0.42,0.75
					c0.2,0.38-0.02-0.08,0.04,0.09c0.05,0.13,0.1,0.27,0.14,0.4c0.07,0.23,0.11,0.46,0.17,0.7c0.06,0.24,0.03,0.23,0-0.04
					c0.01,0.11,0.03,0.23,0.03,0.34c0.01,0.38-0.01,0.75-0.02,1.14c0,0.15,0.09-0.39-0.02,0.07c-0.23,0.94,0.45,1.9,1.45,1.9
					c2.21,0,4.42,0,6.63,0c2.74,0,5.48-0.13,8.16,0.62c2.11,0.6,4.11,1.61,5.83,2.99c1.66,1.33,2.8,2.99,4.12,4.61
					c2.02,2.46,2.31,6.16,2.43,9.21c0.09,2.37,0.02,4.79-0.27,7.15c-0.1,0.81,0.77,1.49,1.5,1.5c1.69,0.01,3.59,0.11,4.46,1.78
					c0.44,0.84,0.63,1.81,0.81,2.73c0.21,1.12,0.52,2.4,0.34,3.54c-0.25,1.54-1.65,2.34-3.03,2.75c-1.04,0.3-1.58,0.4-2.58,0.41
					c0,1,0,2,0,3c3.05-0.05,5.94,0.81,7.97,3.18c1.39,1.62,2.19,3.69,2.62,5.76c0.08,0.38,0.15,0.76,0.2,1.15
					c-0.01-0.09,0-0.08,0.02,0.19c0.01,0.14,0.03,0.27,0.04,0.41c0.03,0.8-0.28,1.52-0.58,2.35c-1.07,2.9-3.23,5.19-5.93,6.63
					c-1.02,0.54-2.1,0.95-3.21,1.24c-0.36,0.09-0.72,0.16-1.08,0.24c-0.33,0.07-0.47,0.06-0.06,0.02c-0.81,0.09-1.5,0.61-1.5,1.5
					c0,3.97,0,7.93,0,11.9C264.26,168.36,267.26,168.36,267.26,166.43z"/>
			</g>
		</g>
		<g class="st1">
			<path class="st7" d="M266.59,230.08l-0.83-13.92v-25.98c0,0,12.38,7.55,14.2-9.36c0,0-11.78-9.13-14.2-14.38v-11.9
				c0,0,10.27-1.11,12.38-11.58c0,0-0.3-12.89-12.38-12.59c0,0,7.85,0,7.1-6.04c-0.76-6.04-1.66-8.16-7.1-8.16
				c0,0,1.67-13.17-2.84-17.67c-0.01-0.01-0.01-0.01-0.02-0.02c-3.22-5.04-8.85-8.39-15.27-8.39h-10.27c0,0,3.32-13.69-27.19-6.85
				c0,0-7.85-10.68-29.91-1.92c0,0-5.14-23.76-29.91-6.24c0,0-4.17-9.36-15.08-9.36c-10.9,0-21.31,13.9-21.31,13.9H91.16
				c0,0-8.46,1.01-9.97,10.47c0,0-6.65-9.57-25.98-8.06c0,0-11.18-0.3-4.53,6.34c0,0-14.4-3.93-18.53,0
				c-4.13,3.93-13.39,17.22,0,14.5v5.34v15.2c0,0-6.21-0.13-6.98,5.37c0,0,4.06,7.62,1.64,11.24c-2.42,3.62-4.43,10.56,5.34,17.21
				v36v22.91c0,10.01,8.11,18.12,18.12,18.12h161.11"/>
			<g class="st3">
				<path class="st6" d="M268.09,230.08c-0.28-4.72-0.76-9.46-0.83-14.18c-0.1-6.25,0-12.51,0-18.76c0-2.32,0-4.64,0-6.96
					c-0.75,0.43-1.5,0.86-2.26,1.3c1.79,1.09,3.98,1.74,6.06,1.87c4.36,0.27,7.53-2.58,9.06-6.47c0.57-1.44,0.91-2.95,1.13-4.48
					c0.16-1.08,0.4-2.06-0.48-2.84c-1.37-1.21-2.84-2.3-4.22-3.5c-2.15-1.87-4.26-3.81-6.19-5.9c-0.84-0.91-1.66-1.84-2.36-2.87
					c-0.24-0.34-0.5-1.09-0.81-1.35c-0.18-0.15,0.04,0.49,0.07,0.42c0.03-0.06,0-0.2,0-0.26c0.15-2.1,0-4.27,0-6.38
					c0-1.73,0-3.46,0-5.2c-0.5,0.5-1,1-1.5,1.5c5.23-0.58,10.27-4.01,12.52-8.78c0.62-1.32,1.35-2.96,1.35-4.44
					c0-0.69-0.14-1.42-0.25-2.1c-0.42-2.49-1.36-4.95-2.88-6.98c-2.58-3.43-6.52-4.93-10.74-4.87c-1.93,0.03-1.93,3.01,0,3
					c3.71-0.02,8.09-1.81,8.59-5.93c0.19-1.55-0.16-3.19-0.45-4.71c-0.25-1.26-0.6-2.57-1.3-3.66c-1.51-2.37-4.22-2.87-6.84-2.89
					c0.5,0.5,1,1,1.5,1.5c0.27-2.18,0.34-4.4,0.29-6.59c-0.09-3.57-0.45-7.65-2.44-10.72c-2.34-3.61-5.52-6.82-9.53-8.57
					c-3.2-1.4-6.46-1.69-9.89-1.69c-2.77,0-5.55,0-8.32,0c0.48,0.63,0.96,1.27,1.45,1.9c0.43-1.79,0.04-3.81-0.85-5.39
					c-2.32-4.12-7.69-5.1-11.99-5.25c-5.43-0.2-10.91,0.77-16.19,1.95c0.56,0.23,1.13,0.46,1.69,0.69
					c-4.05-5.46-12.38-6.58-18.61-5.95c-4.48,0.46-8.81,1.69-12.99,3.34c0.62,0.35,1.23,0.7,1.85,1.05
					c-0.59-2.68-1.9-5.38-3.53-7.57c-3.48-4.68-8.7-6.85-14.49-5.99c-5.15,0.77-9.89,3.48-14.09,6.43c0.68,0.18,1.37,0.36,2.05,0.54
					c-2.14-4.75-7.07-8.48-12.07-9.62c-8.58-1.97-16.24,3.02-22.13,8.79c-1.71,1.67-3.33,3.46-4.77,5.37
					c0.43-0.25,0.86-0.5,1.3-0.74c-5.17,0-10.34,0-15.51,0c-3.92,0-7.7-0.5-11.31,1.25c-4.09,1.98-6.65,5.91-7.41,10.33
					c0.91-0.12,1.83-0.24,2.74-0.36c-2.47-3.52-6.88-5.76-10.83-7.1c-4.68-1.58-9.74-2.03-14.65-1.81c-2.21,0.1-4.6,0.04-6.71,0.76
					c-1.41,0.48-2.77,1.36-3.13,2.9c-0.49,2.07,1.13,3.99,2.47,5.36c0.49-0.84,0.97-1.67,1.46-2.51c-2.38-0.65-4.83-1.09-7.28-1.42
					c-3.59-0.48-7.88-0.92-11.23,0.78c-2.46,1.24-4.37,4.17-5.85,6.4c-1.52,2.29-3.29,5.26-3,8.13c0.45,4.42,5.61,4.14,8.84,3.5
					c-0.63-0.48-1.27-0.96-1.9-1.45c0,6.85,0,13.69,0,20.54c0.5-0.5,1-1,1.5-1.5c-2.03-0.03-4.2,0.65-5.8,1.9
					c-1.34,1.05-2.25,2.56-2.57,4.24c-0.22,1.15,0.32,1.87,0.76,2.87c1.13,2.6,2.39,6.04,0.78,8.66c-1.42,2.32-2.23,5.05-1.92,7.78
					c0.56,4.88,4.13,8.49,8,11.16c-0.25-0.43-0.5-0.86-0.74-1.3c0,8.44,0,16.88,0,25.32c0,6.66,0,13.32,0,19.98
					c0,4.45-0.01,8.9,0,13.35c0.02,6.92,3.49,13.41,9.43,17.04c3.31,2.02,7.06,2.85,10.91,2.85c1.55,0,3.11,0,4.66,0
					c6.74,0,13.48,0,20.22,0c9.99,0,19.99,0,29.98,0c11.33,0,22.66,0,33.99,0c10.88,0,21.76,0,32.64,0c8.51,0,17.02,0,25.53,0
					c4.26,0,8.53,0,12.79,0c0.19,0,0.38,0,0.57,0c1.93,0,1.93-3,0-3c-3.44,0-6.89,0-10.33,0c-8.75,0-17.5,0-26.26,0
					c-11.65,0-23.29,0-34.94,0c-12.22,0-24.44,0-36.65,0c-10.44,0-20.88,0-31.32,0c-6.33,0-12.66,0-18.99,0
					c-1.1,0-2.21,0.03-3.32-0.01c-8.34-0.32-15.4-7.2-15.88-15.55c-0.25-4.36-0.03-8.79-0.03-13.16c0-3.66,0-7.31,0-10.97
					c0-9.75,0-19.49,0-29.24c0-1.87,0-3.75,0-5.62c0-0.32,0.03-0.65,0-0.97c-0.1-1-0.79-1.33-1.54-1.88
					c-1.04-0.76-2.02-1.63-2.9-2.58c-2.29-2.49-3.5-5.71-2.53-9.03c0.35-1.18,0.97-2.13,1.56-3.2c0.9-1.62,0.95-3.48,0.69-5.26
					c-0.36-2.52-1.28-5.03-2.47-7.27c0.05,0.39,0.1,0.77,0.15,1.16c0.3-1.83,1.27-3.17,3.03-3.81c0.98-0.36,1.59-0.47,2.5-0.46
					c0.81,0.01,1.5-0.7,1.5-1.5c0-6.85,0-13.69,0-20.54c0-1.03-0.95-1.63-1.9-1.45c-1.34,0.26-3.04,0.61-4.37,0.07
					c-0.54-0.22-0.72-0.55-0.71-1.21c0.02-2.1,1.58-4.55,2.82-6.37c1.18-1.74,2.76-4.28,4.78-5.13c2.77-1.17,6.37-0.7,9.25-0.31
					c2.27,0.31,4.55,0.75,6.76,1.35c1.45,0.39,2.5-1.44,1.46-2.51c-0.56-0.57-1.19-1.2-1.52-1.95c-0.05-0.11-0.16-0.5-0.16-0.49
					c0,0.02,0.06-0.21,0.01-0.15c0.12-0.16,0.2-0.29,0.62-0.49c0.24-0.11,0.83-0.31,1.29-0.41c1.76-0.4,4.11-0.39,6.1-0.44
					c6.73-0.16,14.27,1.14,19.53,5.27c0.67,0.53,1.31,1.11,1.89,1.73c0.15,0.17,0.3,0.34,0.45,0.52c0.19,0.22-0.25-0.35-0.05-0.06
					c0.66,0.94,2.5,1.03,2.74-0.36c0.6-3.51,2.32-6.53,5.5-8.26c0.84-0.45,1.67-0.78,2.64-1.01c0.23-0.06,0.46-0.09,0.69-0.14
					c0.08-0.01-0.54-0.01-0.18,0.04c1.78,0.25,3.77,0,5.56,0c3.11,0,6.23,0,9.34,0c2.34,0,4.67,0,7.01,0c0.89,0,1.37-0.03,2.08-0.74
					c0.2-0.2-0.28,0.34,0.07-0.09c0.26-0.32,0.51-0.63,0.78-0.95c4.41-5.23,10.51-11.09,17.59-12.02
					c6.17-0.81,12.78,2.82,15.35,8.53c0.31,0.7,1.44,0.97,2.05,0.54c5.34-3.74,13.01-8.24,19.69-5.38c1.87,0.8,3.57,2.28,4.7,3.74
					c0.59,0.76,1.1,1.58,1.55,2.42c0.2,0.36,0.38,0.73,0.55,1.1c0.08,0.17,0.16,0.35,0.24,0.52c0.03,0.08,0.14,0.34,0.02,0.03
					c0.04,0.11,0.09,0.21,0.13,0.32c0.33,0.84,0.64,1.7,0.83,2.58c0.16,0.73,1.12,1.33,1.85,1.05c5.91-2.32,12.48-4.11,18.89-3.17
					c1.85,0.27,3.74,0.79,5.38,1.58c0.64,0.31,1.26,0.66,1.85,1.05c0.24,0.16,0.48,0.32,0.71,0.5c0.24,0.18-0.14-0.12,0.07,0.06
					c0.11,0.09,0.22,0.18,0.33,0.28c0.31,0.27,0.6,0.55,0.88,0.84c0.15,0.16,0.53,0.67,0.1,0.09c0.42,0.57,0.99,0.85,1.69,0.69
					c4.51-1,9.11-1.81,13.75-1.86c2.62-0.03,5.34,0.16,7.79,1.14c0.18,0.07,0.6,0.27,0.95,0.46c0.18,0.1,0.36,0.21,0.53,0.32
					c0.09,0.06,0.58,0.42,0.32,0.21c0.28,0.22,0.54,0.46,0.78,0.71c0.11,0.12,0.22,0.24,0.32,0.37c-0.12-0.14,0-0.03,0.13,0.19
					c0.15,0.25,0.29,0.49,0.42,0.75c0.2,0.38-0.02-0.08,0.04,0.09c0.05,0.13,0.1,0.27,0.14,0.4c0.07,0.23,0.11,0.46,0.17,0.7
					c0.06,0.24,0.03,0.23,0-0.04c0.01,0.11,0.03,0.23,0.03,0.34c0.01,0.38-0.01,0.75-0.02,1.14c0,0.15,0.09-0.39-0.02,0.07
					c-0.23,0.94,0.45,1.9,1.45,1.9c2.21,0,4.42,0,6.63,0c2.74,0,5.48-0.13,8.16,0.62c2.11,0.6,4.11,1.61,5.83,2.99
					c1.66,1.33,2.8,2.99,4.12,4.61c2.02,2.46,2.31,6.16,2.43,9.21c0.09,2.37,0.02,4.79-0.27,7.15c-0.1,0.81,0.77,1.49,1.5,1.5
					c1.69,0.01,3.59,0.11,4.46,1.78c0.44,0.84,0.63,1.81,0.81,2.73c0.21,1.12,0.52,2.4,0.34,3.54c-0.25,1.54-1.65,2.34-3.03,2.75
					c-1.04,0.3-1.58,0.4-2.58,0.41c0,1,0,2,0,3c3.05-0.05,5.94,0.81,7.97,3.18c1.39,1.62,2.19,3.69,2.62,5.76
					c0.08,0.38,0.15,0.76,0.2,1.15c-0.01-0.09,0-0.08,0.02,0.19c0.01,0.14,0.03,0.27,0.04,0.41c0.03,0.8-0.28,1.53-0.58,2.35
					c-1.07,2.9-3.23,5.19-5.93,6.63c-1.02,0.54-2.1,0.95-3.21,1.24c-0.36,0.09-0.72,0.16-1.08,0.24c-0.33,0.07-0.47,0.06-0.06,0.02
					c-0.81,0.09-1.5,0.61-1.5,1.5c0,3.82-0.08,7.66,0,11.48c0.05,2.1,2.07,4.13,3.39,5.62c2.09,2.35,4.41,4.49,6.78,6.55
					c1.46,1.27,2.94,2.51,4.47,3.69c-0.15-0.35-0.29-0.71-0.44-1.06c-0.3,2.62-0.88,5.65-2.68,7.7c-1.09,1.23-2.5,1.8-3.92,1.84
					c-1.37,0.04-2.44-0.24-3.85-0.75c-0.46-0.17-0.03,0.01-0.45-0.19c-0.18-0.08-0.36-0.17-0.54-0.26c-0.17-0.09-0.34-0.18-0.5-0.27
					c-0.98-0.59-2.26,0.17-2.26,1.3c0,10.11-0.34,20.26,0.26,30.35c0.19,3.18,0.38,6.37,0.57,9.55
					C265.2,232,268.21,232.01,268.09,230.08L268.09,230.08z"/>
			</g>
		</g>
		<g>
			<path class="st6" d="M50.69,185.95v15.1c0,0,1.21,8.46,15.1,9.06s49.84-7.85,77.93-7.25s61.32,4.23,70.69,3.32
				s18.43-2.72,17.52-15.71"/>
			<g>
				<path class="st6" d="M49.56,185.95c0,4.38,0,8.77,0,13.15c0,0.91-0.09,1.84,0.15,2.72c0.4,1.51,1.27,2.9,2.28,4.06
					c4.15,4.77,11.2,5.56,17.14,5.35c7.07-0.25,14.12-1.36,21.12-2.34c18.43-2.57,36.92-5.35,55.58-4.86
					c18.74,0.5,37.41,2.22,56.13,3.15c5.63,0.28,11.17,0.45,16.76-0.4c6.24-0.95,12.37-3.59,13.94-10.31c0.46-1.97,0.52-4,0.4-6.01
					c-0.09-1.44-2.34-1.45-2.25,0c0.21,3.39-0.1,7.1-2.45,9.76c-1.93,2.18-4.73,3.23-7.5,3.87c-5.27,1.21-10.63,1.18-16,0.97
					c-17.56-0.7-35.06-2.38-52.62-3.07c-9.21-0.36-18.34-0.32-27.53,0.43c-9.07,0.74-18.09,1.93-27.1,3.18
					c-7.62,1.06-15.23,2.25-22.89,2.98c-6.01,0.57-12.88,1.19-18.31-1.99c-1.73-1.01-3.17-2.42-4.08-4.21
					c-0.22-0.42-0.31-0.72-0.48-1.29c-0.03-0.1-0.05-0.21-0.07-0.32c0.01,0.06,0.01,0.42,0.03,0.08c0.17-1.97,0-4.03,0-6
					c0-2.51,0-5.02,0-7.53c0-0.46,0-0.92,0-1.38C51.81,184.5,49.56,184.5,49.56,185.95L49.56,185.95z"/>
			</g>
		</g>
		<path class="st6" d="M129.68,186.55h15.71c0,0,19.41-1.59,2.04,11.03c0,0-8.84,6.27-20.01-1.36
			C127.41,196.22,113.97,186.55,129.68,186.55z"/>
		<ellipse class="st6" cx="75.91" cy="162.38" rx="11.33" ry="14.35"/>
		<ellipse class="st6" cx="71.23" cy="160.72" rx="5.74" ry="8.16"/>
		<ellipse class="st6" cx="205.32" cy="159.11" rx="13.72" ry="16.16"/>
		<ellipse class="st6" cx="199.65" cy="157.24" rx="6.95" ry="9.19"/>
	</g>
	<g>
		<g>
			<g>
				<path class="st6" d="M27.84,163.9c-2.04,3.33-4.21,6.67-6.7,9.68c-3.22,3.89-7.78,6.8-5.4,12.59
					c3.54,8.61,20.7,11.64,21.42-0.23c0.39-6.43-9.61-6.4-10,0c0.05-0.88,0.57-1.75,0.44-1.97c0.01,0.02-2.43-1.46-2.58-1.49
					c-0.49,1.65-0.31,1.99,0.51,1.04c0.46-0.41,0.89-0.85,1.31-1.3c0.85-0.91,1.63-1.88,2.4-2.86c2.62-3.31,5.02-6.81,7.23-10.41
					C39.84,163.45,31.2,158.42,27.84,163.9L27.84,163.9z"/>
			</g>
			<g>
				<g>
					<path class="st6" d="M26.55,163.15c-2.48,4.03-4.99,8.08-8.33,11.46c-2.36,2.4-4.53,4.49-4.65,8.1
						c-0.25,7.22,7.66,12.83,14.33,12.74c5.71-0.07,12.21-4.9,10.48-11.24c-1.82-6.66-10.77-5.67-12.54,0.4
						c-1.21,4.16,3.63,7.9,7.34,5.65c0.02-0.01,0.04-0.02,0.05-0.03c-2.02-2.62-4.04-5.24-6.06-7.85c-0.32,0.39-1.61,1.81-1.36,2.3
						c0.52-0.77,1.03-1.53,1.55-2.3c-0.82-0.2-1.3-0.71-1.45-1.52c0.17,1.28,0.34,2.57,0.5,3.85c0.06-0.29,2.06-2.06,2.51-2.58
						c1.04-1.2,2.01-2.47,2.96-3.74c2.22-2.96,5.62-6.69,6.49-10.34c1.66-7.02-6.29-9.92-11.05-5.9c-4.93,4.16,2.18,11.2,7.07,7.07
						c0.25-0.21,0.5-0.42,0.75-0.63c-1.18,0.49-2.36,0.98-3.54,1.46c-0.75-0.43-1.51-0.85-2.26-1.28c-0.17-1.28-0.34-2.57-0.5-3.85
						c-1.73,7.69-16.65,13.92-10.73,22.53c2.05,2.98,5.95,5,9.56,5.02c1.83,0.01,3.66-0.44,5.16-1.53c1-0.73,4.47-5.21,1.42-1.48
						c3.39-4.14-0.87-11-6.06-7.85c-0.02,0.01-0.04,0.02-0.05,0.03c2.45,1.88,4.9,3.76,7.34,5.65c0.33-1.13-8.71-1.71-10.21-2.67
						c-2.65-1.7-0.46-2.37,1.19-4.17c3.38-3.71,6.11-7.98,8.72-12.24C38.56,162.69,29.91,157.67,26.55,163.15z"/>
				</g>
			</g>
		</g>
		<g id="_x31__13_">
			<g>
				<path class="st6" d="M270.76,166.43c0-3.97,0-7.93,0-11.9c-1.67,1.67-3.33,3.33-5,5c8.24-1.01,17.28-7.73,17.38-16.78
					c0.1-9.83-7.84-17.24-17.38-17.38c0,3.33,0,6.67,0,10c5.81-0.1,11.94-3.49,12.14-9.91c0.25-8.09-3.89-14.02-12.14-14.29
					c1.67,1.67,3.33,3.33,5,5c1.11-9.19-0.33-18.43-7.42-24.89c-7.49-6.83-16.59-6.19-25.98-6.19c1.61,2.11,3.21,4.22,4.82,6.33
					c0.91-3.96-0.48-8.11-3.44-10.85c-7.56-7.01-21.08-4.05-29.89-2.14c1.88,0.77,3.76,1.53,5.65,2.3
					c-8.24-10.85-24.52-8.41-35.55-4.21c2.05,1.16,4.1,2.33,6.15,3.49c-1.09-4.88-4.04-9.66-7.97-12.71
					c-9.18-7.12-20.81-2.32-29.28,3.48c2.28,0.6,4.56,1.2,6.84,1.79c-3.84-8.27-13.73-12.99-22.53-11.53
					c-9.23,1.54-17.01,8.84-22.49,16.06c1.44-0.83,2.88-1.65,4.32-2.48c-13.71,0-33.89-4.12-37.61,14.14
					c3.05-0.4,6.09-0.8,9.14-1.19C80.24,80.2,70.29,77.4,61.7,76.94c-4.11-0.22-9.92-0.44-13.76,1.46
					c-6.14,3.04-4.66,9.29-0.79,13.52c1.62-2.79,3.24-5.57,4.86-8.36c-4.3-1.15-8.93-1.98-13.39-1.92
					c-5.76,0.08-9.51,2.18-12.97,6.62c-2.75,3.52-5.83,8.07-5.4,12.76c0.65,7.04,7.7,7.64,13.24,6.68
					c-2.11-1.61-4.22-3.21-6.33-4.82c0,6.85,0,13.69,0,20.54c1.67-1.67,3.33-3.33,5-5c-3.81,0.01-7.84,1.66-10.04,4.87
					c-3.14,4.58-0.97,7.17,0.12,11.65c0.92,3.8-2.5,7.45-2.41,11.58c0.16,6.65,4.74,11.36,9.8,15.05c-0.83-1.44-1.65-2.88-2.48-4.32
					c0,11.31,0,22.63,0,33.94c0,4.02,0,8.03,0,12.05c0,5.9-0.72,12.43,0.62,18.23c2.89,12.55,14.12,17.82,25.88,17.82
					c8.12,0,16.24,0,24.35,0c53.44,0,106.88,0,160.32,0c9.3,0,18.39,0.51,25.67-6.77c6.21-6.21,6.77-14.01,6.77-22.22
					c0-6.7,0-13.41,0-20.11c-2.51,1.44-5.02,2.88-7.52,4.32c6.74,4.01,15.39,2.79,19.28-4.46c2.58-4.81,3.71-10.5-0.76-14.16
					c-4.13-3.38-9.17-7.16-11.67-11.97c-2.97-5.71-11.6-0.66-8.63,5.05c3.23,6.22,9.54,11.16,14.98,15.4
					c-0.49-1.18-0.98-2.36-1.46-3.54c-0.37,2.79-0.98,6.18-4.01,6.02c-1.24-0.07-1.53-0.3-2.67-0.97c-3.27-1.94-7.52,0.55-7.52,4.32
					c0,5.8,0,11.6,0,17.41c0,6.61,0.98,14-4.77,18.72c-4.98,4.08-12.56,2.98-18.6,2.98c-25.66,0-51.33,0-76.99,0
					c-28.86,0-57.72,0-86.57,0c-7.23,0-14.45,0.03-21.68,0c-3.7-0.02-7.22-0.52-10.22-2.98c-5.86-4.8-4.77-12.44-4.77-19.16
					c0-12.72,0-25.44,0-38.16c0-3.22,0-6.45,0-9.67c0-0.66,0.07-1.37,0-2.03c-0.42-3.69-3.23-4.31-5.42-6.9
					c-3.72-4.4-0.4-6.41,0.6-10.93c0.98-4.41-0.84-9.31-2.84-13.18c0.17,1.28,0.34,2.57,0.5,3.85c0.37-1.61,1.47-1.7,2.16-1.7
					c2.7-0.01,5-2.28,5-5c0-6.85,0-13.69,0-20.54c0-3.5-3.18-5.36-6.33-4.82c-0.3,0.05-2.25,0.13-2.26,0.14
					c0.09-0.11,1.37,2.33,1.56,2.3c-0.09,0.02,1.14-2.8,1.17-2.85c0.94-1.7,2.62-4.75,4.4-5.73c2.91-1.62,10.12,0.34,13.66,1.29
					c4.95,1.33,8.19-4.73,4.86-8.36c-2.05-2.24-1.37,2.87-1.81,2.47c0.2,0.19,0.95-0.38,1.27-0.25c0,0,1.08,0,1.45-0.02
					c4.39-0.22,8.72-0.24,13,0.93c2.49,0.68,5.01,1.69,7.08,3.25c0.68,0.51,2.98,3.25,1.66,1.4c2.28,3.18,8.2,3.39,9.14-1.19
					c0.81-3.99,2.34-5.13,5.58-6.8c1.56-0.8-0.97-0.06,0.04,0c1.08,0.06,2.19,0,3.28,0c6.15,0,12.6,0.57,18.73,0
					c1.6-0.15,2.56-0.62,3.88-1.46c2.7-1.73-0.22,0.23,0.37-0.48c0.35-0.42,0.69-0.86,1.06-1.28c2.84-3.18,5.86-6.24,9.56-8.42
					c6.29-3.72,14.3-2.35,17.54,4.63c1.08,2.33,4.77,3.22,6.84,1.79c5.02-3.44,13.31-8.84,18.91-3.56c2.23,2.1,3.08,4.24,3.65,6.81
					c0.55,2.46,3.71,4.42,6.15,3.49c6.2-2.36,13.57-4.67,20.17-2.45c1.05,0.35,3.37,1.62,3.38,1.62c0.59,0.4,2.26,2.49,0.7,0.45
					c1.43,1.89,3.26,2.81,5.65,2.3c5.67-1.23,15.85-3.6,20.48-0.18c0.35,0.26,0.11,0.3,0.44,0.64c0.3,0.31-0.09-0.85-0.05-0.09
					c0.07,1.15,0.01-0.08,0.06-0.17c-0.11,0.23,0.05,0.86,0.02,1.14c-0.07,0.7,0.28-1.49,0.09-0.64c-0.72,3.14,1.46,6.33,4.82,6.33
					c6.3,0,13.79-1.21,18.9,3.26c5.26,4.59,5.27,11.34,4.49,17.82c-0.33,2.75,2.56,4.92,5,5c0.77,0.02,1.88,0.51,1.41-0.03
					c0.38,0.44,1.04,3.48,0.75,3.96c0.32-0.53-1.48,0.25-2.16,0.26c-6.43,0.12-6.45,9.9,0,10c2.97,0.04,5.1,0.96,6.4,3.7
					c0.37,0.79,0.58,1.65,0.79,2.5c0.28,1.18,0.34,0.48,0.19,1.19c-0.44,2.13-2.22,4.22-4.13,5.39c-0.94,0.58-1.8,0.82-2.81,1.2
					c-0.58,0.22-2.88,0.49-0.44,0.19c-2.69,0.33-5,2.02-5,5c0,3.97,0,7.93,0,11.9C260.76,172.86,270.76,172.87,270.76,166.43z"/>
			</g>
			<g>
				<g>
					<path class="st6" d="M272.26,166.43c0-3.97,0-7.93,0-11.9c0-4.33-5.47-6.6-8.54-3.54c-0.5,0.5-1,1-1.5,1.5
						c-3.81,3.81,0.21,9.11,4.86,8.36c10.66-1.72,19.73-11.9,16.8-22.95c-1.45-5.49-4.96-10.2-10.24-12.47
						c-3.94-1.7-10.23-2.95-13.11,1.2c-2.59,3.74-0.66,9.1,3.88,10.06c4.31,0.91,9.73-1.27,12.47-4.63
						c3.34-4.09,2.86-9.95,1.11-14.67c-2.02-5.43-6.78-7.48-12.25-7.72c-4.4-0.19-6.51,5.57-3.54,8.54c0.5,0.5,1,1,1.5,1.5
						c3.3,3.3,8.11,0.59,8.54-3.54c0.99-9.67-0.33-18.95-7.76-25.82c-7.74-7.16-17.24-6.76-27.14-6.76c-3.44,0-6.7,4.39-4.32,7.52
						c0.48,0.63,0.96,1.27,1.45,1.9c3.11,4.08,8.68,2.56,9.32-2.52c2.41-19.18-24.49-15.87-35.36-13.51c-5.33,1.15-4.12,7.97,0,9.64
						c0.56,0.23,1.13,0.46,1.69,0.69c5.11,2.08,7.67-5,4.86-8.36c-8.85-10.59-25.1-8.2-36.46-3.89c-3.83,1.45-5.2,6.86-1.19,9.14
						c0.62,0.35,1.23,0.7,1.85,1.05c3.79,2.15,8.49-1.4,7.35-5.65c-2.08-7.68-7.31-14.7-15.3-16.76
						c-8.66-2.23-17.15,1.84-24.15,6.63c-3.41,2.34-3.19,7.99,1.19,9.14c0.68,0.18,1.37,0.36,2.05,0.54
						c4.38,1.15,7.61-3.51,5.65-7.34c-4.23-8.25-13.37-13.39-22.64-12.37c-9.91,1.09-18.24,8.35-24.19,15.89
						c-3.32,4.21,0.77,10.89,6.06,7.85c0.43-0.25,0.86-0.5,1.3-0.74c4.31-2.47,2.41-9.32-2.52-9.32c-5.17,0-10.34,0.05-15.51,0
						c-3.71-0.03-7.48-0.27-11.09,0.81c-6.62,1.98-11.05,7.87-12.46,14.44c-0.6,2.79,1.38,6.78,4.82,6.33
						c0.91-0.12,1.83-0.24,2.74-0.36c4.48-0.59,6.37-4.96,3.54-8.54c-6.9-8.72-19.42-10.74-29.86-10.34
						c-4.5,0.17-9.62,0.61-12.49,4.56c-3.24,4.47-0.84,9.37,2.41,12.96c2.18,2.4,6.3,1.66,7.85-1.01c0.49-0.84,0.97-1.67,1.46-2.51
						c1.59-2.73,0.16-6.56-2.99-7.34c-6.08-1.52-13.51-3.14-19.68-1.24c-5.5,1.69-9.25,6.92-11.85,11.79
						c-2.37,4.43-3.49,10.5,0.58,14.36c3.35,3.17,8.24,2.86,12.43,2.13c4.76-0.83,4.2-6.85,1.19-9.14c-0.63-0.48-1.27-0.96-1.9-1.45
						c-3.13-2.38-7.52,0.88-7.52,4.32c0,6.85,0,13.69,0,20.54c0,4.33,5.47,6.6,8.54,3.54c0.5-0.5,1-1,1.5-1.5
						c2.9-2.9,0.9-8.85-3.54-8.54c-4.95,0.35-9.62,2.25-12.06,6.83c-1.08,2.02-1.56,4.2-1.09,6.47c0.46,2.23,2.32,4.49,2,6.85
						c-0.32,2.32-2.16,4.53-2.47,7.06c-0.31,2.5-0.09,4.96,0.72,7.36c1.67,4.93,5.53,8.41,9.62,11.37c4.23,3.06,9.17-2.78,6.84-6.84
						c-0.25-0.43-0.5-0.86-0.74-1.3c-2.47-4.31-9.32-2.41-9.32,2.52c0,13.14,0,26.28,0,39.42c0,9.72-1.89,21.56,2.63,30.54
						c4.21,8.36,12.87,13.26,22.07,13.58c12.05,0.41,24.18,0,36.23,0c50.83,0,101.65,0,152.48,0c11.62,0,22.57-0.81,29.43-11.56
						c3.33-5.23,3.76-11.13,3.76-17.16c0-7.29,0-14.59,0-21.88c0-3.81-4.24-6.2-7.52-4.32c-0.75,0.43-1.5,0.86-2.26,1.3
						c-3.16,1.82-3.34,6.86,0,8.63c7.78,4.13,17.11,3.1,21.48-5.26c1.58-3.03,3.2-8.04,2.17-11.46c-1.19-3.95-6.29-6.65-9.15-9.35
						c-1.7-1.61-3.46-3.28-4.83-5.2c-1.17-1.64-1.87-3.26-3.83-4.1c-3.35-1.43-7.32,0.48-8.55,3.84
						c-2.91,7.99,10.44,17.06,15.59,21.14c3.35,2.65,10.51,0.34,8.36-4.86c-0.15-0.35-0.29-0.71-0.44-1.06
						c-2.21-5.34-9.07-4.38-9.82,1.33c-0.42,3.19-0.92,4.5-4.12,3.97c1.77,0.29-1.69-0.76-2.51-0.9c-6.61-1.08-7.57,5.29-7.57,10.21
						c0,6.18,0,12.35,0,18.53c0,6.39-1.39,12.49-8.28,14.57c-5.57,1.68-12.39,0.59-18.15,0.59c-7.21,0-14.43,0-21.64,0
						c-13.66,0-27.31,0-40.97,0c-26.75,0-53.49,0-80.24,0c-13.04,0-26.54,1.01-39.54-0.04c-15.24-1.23-11.79-18.61-11.79-29.48
						c0-7.48,0-14.96,0-22.44c0-3.46,0-6.92,0-10.38c0-3.01,0.56-6.52-0.18-9.48c-0.68-2.71-2.42-3.62-4.33-5.33
						c-3.13-2.8-2.85-4.66-1.24-8.35c2.46-5.65,0.48-11.56-2.12-16.78c-2.11-4.24-9.97-2.43-9.32,2.52c0.05,0.39,0.1,0.77,0.15,1.16
						c0.68,5.22,8.2,7.23,9.82,1.33c0.26-0.93,3.45-1.17,4.29-1.73c1.4-0.93,2.33-2.41,2.74-4.04c0.94-3.72,0.18-8.71,0.18-12.53
						c0-3.74,1.13-9.39-0.97-12.74c-1.07-1.71-5.2-4.47-7.26-2.87c0.5,4.18,1.12,4.93,1.86,2.25c0.47-0.83,0.98-1.64,1.52-2.43
						c0.91-1.35,1.63-2.66,3.24-3.28c3.98-1.54,9.25,1.56,13.23,1.67c2.93,0.08,5.5-1.57,6.49-4.38c0.58-1.66,0.42-3.19-0.29-4.76
						c-0.53-1.17-1.22-3.04-1.4-0.97c-0.49,1.18-0.98,2.36-1.46,3.54c-0.72,0.86-1.38,0.19-0.3,0.39c1.06,0.19,2.84-0.22,3.99-0.24
						c2.46-0.05,4.95-0.04,7.39,0.35c4.37,0.69,8.75,2.28,11.71,5.7c3.9,4.5,10.26-1.23,7.85-6.06c-0.6-1.2-1.83-1.93-3.04-2.36
						c-4.55-1.62-8.77,5.25-4.86,8.36c2.94,2.35,7.03,3.17,9.77-0.09c2.78-3.3,1.38-7.32,6.67-8.39c5.66-1.15,4.16-9.71-1.33-9.82
						c-0.07,0-0.13,0-0.2,0c-2.98-0.06-6.02,3.29-4.82,6.33c0.01,0.01,0.01,0.03,0.02,0.04c0.87,2.22,2.42,3.49,4.82,3.67
						c4.6,0.35,9.35,0,13.97,0c4.03,0,9.02,0.89,12.54-1.43c-2.28-2.28-4.56-4.56-6.84-6.84c-0.01,0.01-0.01,0.03-0.02,0.04
						c-3,5.79,4.94,10.26,8.63,5.05c3.09-4.36,8.58-9.5,13.97-10.53c2.54-0.49,5.06,0.03,7.25,1.4c2.53,1.59,3.16,4.09,5.25,5.97
						c4.87,4.38,9.58-0.89,14.06-3c5.95-2.81,10.86-1.54,13.49,4.7c2.18,5.16,11.31,1.4,9.14-3.85c-0.02-0.04-0.03-0.08-0.05-0.13
						c-2.42-5.85-12.07-3.33-9.64,2.66c1.19,2.94,1.75,6.15,5.16,7.3c3.67,1.23,7.81-1.44,11.33-2.28c4.11-0.98,8.9-1.44,12.88,0.33
						c0.81,0.36,3.6,2.74,1.62,0.82c0.51,0.49,1.07,0.92,1.51,1.48c3.52,4.38,11.23-1.48,7.85-6.06c-0.07-0.09-0.13-0.18-0.2-0.27
						c-2.62,2.02-5.24,4.04-7.85,6.06c4.62,3.86,10.09,0.94,15.51,0.46c2.65-0.23,5.85-0.54,8.43,0.3c0.96,0.31,1.29,0.61,2.08,0.98
						c2.57,1.22-0.77-0.71,0.12,0.31c3.68,4.22,11.26-1.47,7.85-6.06c-0.01-0.01-0.02-0.03-0.03-0.04
						c-3.76-5.05-12.32-0.36-8.63,5.05c0.24,0.36,0.44,0.74,0.65,1.11c2.62-2.02,5.24-4.04,7.85-6.06
						c-0.01-0.01-0.02-0.02-0.03-0.03c-3.34-3.53-9.99,0.1-8.36,4.86c0.14,0.36,0.24,0.72,0.31,1.1c1.4,5.75,9.4,4.06,9.82-1.33
						c0-0.01,0-0.02,0-0.04c-3.33,0-6.67,0-10,0c0.06,0.49,0.07,0.98,0.02,1.48c-0.08,5.92,7.95,6.42,9.82,1.33
						c0.01-0.03,0.02-0.05,0.03-0.08c-3.21-0.89-6.43-1.77-9.64-2.66c-1.45,4.38,2.22,7.89,6.22,8.38
						c6.67,0.81,13.48-1.77,18.75,3.77c4.89,5.15,2.33,10.24,3.24,16.47c0.35,2.4,1.69,4.21,3.89,5.15c0.18,0.08,3.4,0.51,2.67,0.12
						c0.1,0.47,0.2,0.93,0.3,1.4c1.22,0.11,1.07,0.23-0.45,0.36c-2.7,0.19-5,2.14-5,5c0,1,0,2,0,3c0,2.78,2.29,4.9,5,5
						c2.8,0.1,6.27,2.25,5.87,5.53c-0.42,3.44-4.53,5.36-7.45,5.85c-6.4,1.07-3.59,10.52,2.66,9.64c0.08-0.01,0.17-0.02,0.25-0.03
						c-1.28-3.05-2.57-6.09-3.85-9.14c-3.41,1.46-3.87,4.45-3.98,7.8c-0.11,3.71-1,9.21,0.65,12.64c2.73,5.67,10.59,4.31,12.17-1.4
						c1.71-6.21-7.93-8.86-9.64-2.66c4.88,1.82,7.15,1.27,6.82-1.64c0-0.99,0-1.98,0-2.97c0-0.66,0-1.32,0-1.98
						c0.5-2.18,0.18-2.56-0.98-1.15c5.69-2.44,1.18-9.85-3.85-9.14c-0.08,0.01-0.17,0.02-0.25,0.03c0.89,3.21,1.77,6.43,2.66,9.64
						c7.25-1.21,14.97-7.88,14.74-15.74c-0.26-8.98-7.26-14.97-15.82-15.28c1.67,1.67,3.33,3.33,5,5c0-1,0-2,0-3
						c-1.67,1.67-3.33,3.33-5,5c5.82-0.41,11.03-3.41,10.59-9.93c-0.19-2.76-0.86-5.83-2.59-8.03c-1.98-2.5-4.66-2.21-6.54-3.01
						c0.77,1,1.53,1.99,2.3,2.99c-0.73-1.74,0.08-4.97,0.01-6.87c-0.08-2.05-0.25-4.15-0.7-6.15c-0.87-3.91-3.36-7.35-6.17-10.15
						c-2.9-2.89-6.79-4.93-10.8-5.68c-4.38-0.82-9.89,0.8-14.04-0.55c1,0.77,1.99,1.53,2.99,2.3c-0.01,0.7-0.02,1.39-0.02,2.09
						c2.05-6.17-7.45-8.62-9.64-2.66c-0.01,0.03-0.02,0.05-0.03,0.08c3.27,0.44,6.55,0.89,9.82,1.33c0.05-0.5,0.04-0.99-0.02-1.48
						c-0.64-6.37-9.5-6.49-10,0c0,0.01,0,0.02,0,0.04c3.27-0.44,6.55-0.89,9.82-1.33c-0.07-0.38-0.17-0.74-0.31-1.1
						c-2.79,1.62-5.57,3.24-8.36,4.86c0.01,0.01,0.02,0.02,0.03,0.03c3.94,4.16,10.66-1.17,7.85-6.06
						c-0.21-0.37-0.41-0.75-0.65-1.11c-2.88,1.68-5.76,3.36-8.63,5.05c0.01,0.01,0.02,0.03,0.03,0.04c2.62-2.02,5.24-4.04,7.85-6.06
						c-0.63-0.73-1.36-1.25-2.11-1.86c-2.46-2,0.61,0.19-0.85-0.53c-2.35-1.16-4.69-1.8-7.31-2.08c-3.06-0.33-6.1-0.2-9.15,0.14
						c-2.98,0.33-6.53,1.67-9.5,1.44c1.18,0.49,2.36,0.98,3.54,1.46c-0.25-0.21-0.49-0.41-0.74-0.62c-4-3.33-11.48,1.14-7.85,6.06
						c0.07,0.09,0.13,0.18,0.2,0.27c2.62-2.02,5.24-4.04,7.85-6.06c-2.44-3.04-6.66-4.89-10.34-5.7c-3.65-0.81-7.38-0.8-11.06-0.3
						c-1.76,0.24-3.49,0.56-5.2,1c-1.81,0.47-4.62,2.13-6.48,1.9c1.18,0.49,2.36,0.98,3.54,1.46c0.21,0.27-0.29-1.37-0.38-1.6
						c-3.21,0.89-6.43,1.77-9.64,2.66c0.02,0.04,0.03,0.08,0.05,0.13c3.05-1.28,6.09-2.57,9.14-3.85
						c-2.42-5.74-7.38-10.28-13.67-11.13c-3.46-0.47-6.91,0.16-10.16,1.39c-1.63,0.62-3.21,1.35-4.74,2.18
						c-1.47,0.8-3.32,2.63-5.01,2.85c1.28,0.17,2.57,0.34,3.85,0.5c-0.41-0.31-2.08-3.35-2.99-4.24c-1.4-1.37-3.11-2.57-4.85-3.46
						c-3.8-1.95-8.06-2.7-12.28-2.03c-8.71,1.4-16.5,8.41-21.45,15.4c2.88,1.68,5.76,3.36,8.63,5.05c0.01-0.01,0.01-0.03,0.02-0.04
						c2.16-4.17-2.41-9.75-6.84-6.84c1.03,0.12,0.59,0.14-1.31,0.06c-1.17,0-2.34,0-3.5,0c-1.83,0-3.66,0-5.49,0
						c-3.7,0-7.48,0.28-11.17,0c1.61,1.22,3.21,2.45,4.82,3.67c-0.01-0.01-0.01-0.03-0.02-0.04c-1.61,2.11-3.21,4.22-4.82,6.33
						c0.07,0,0.13,0,0.2,0c-0.44-3.27-0.89-6.55-1.33-9.82c-3.06,0.62-5.92,2.17-8.09,4.42c-2.37,2.46-2.61,5.29-4.17,8.06
						c1-0.77,1.99-1.53,2.99-2.3c0.85,0.29,1.71,0.58,2.56,0.87c-1.62,2.79-3.24,5.57-4.86,8.36c0.01,0,0.02,0.01,0.02,0.01
						c-1-0.77-1.99-1.53-2.99-2.3c0.01,0.02,0.02,0.04,0.03,0.06c2.62-2.02,5.24-4.04,7.85-6.06c-6.71-7.74-18.08-9.36-27.74-8.93
						c-3.26,0.14-7.48,0.34-9.59,3.25c-2.64,3.65,0.21,5.86,1.69,9.04c-0.17-1.28-0.34-2.57-0.5-3.85c0.13-0.22,0.26-0.45,0.4-0.67
						c1.18-0.49,2.36-0.98,3.54-1.46c-2.38,0.18-5.38-0.97-7.75-1.27c-2.56-0.33-5.03-0.57-7.59-0.19
						c-4.89,0.71-7.68,3.62-10.38,7.55c-2.15,3.14-4.9,7.57-3.55,11.56c0.63,1.89,2.19,3.28,4.05,3.93c0.8,0.28,1.9,0.43,2.75,0.46
						c0.73-0.01,1.45-0.07,2.17-0.18c0.93-0.05,0.89-0.14-0.14-0.28c-0.77-1-1.53-1.99-2.3-2.99c0.89,2.75,0.1,6.94,0.1,9.82
						c0,1.56,0,3.11,0,4.67c0,0.93,0.44,3.64,0.24,4.13c1-0.77,1.99-1.53,2.99-2.3c-4.88,2.06-8.46,2.32-10.08,8.21
						c3.27,0.44,6.55,0.89,9.82,1.33c-0.05-0.39-0.1-0.77-0.15-1.16c-3.11,0.84-6.21,1.68-9.32,2.52c1.26,2.52,2.35,5.07,1.53,7.87
						c-0.78,2.65-2.25,4.55-2.29,7.5c-0.06,4.19,2.57,10.75,6.75,12.66c0.34,0.26,0.67,0.52,1.01,0.78c-0.53-2.1-0.7-1.96-0.5,0.41
						c-0.12,1.21,0,2.55,0,3.77c0,3.46,0,6.92,0,10.38c0,6.81,0,13.61,0,20.42c0,6.61-0.04,13.21-0.02,19.82
						c0.02,5.22,0.91,10.02,3.96,14.38c7.27,10.41,19.54,9.23,30.78,9.23c54.85,0,109.69,0,164.54,0c12.26,0,27.76,2.73,36.51-8.04
						c4.08-5.02,4.84-10.86,4.84-17.12c0-3.57,0-7.13,0-10.7c0-3.32-0.99-8.28,0.19-11.38c-0.77,1-1.53,1.99-2.3,2.99
						c0.29-0.17,0.58-0.34,0.87-0.51c-1.28,0.17-2.57,0.34-3.85,0.5c4.08,0.71,7.25,2.78,11.62,0.92c5.54-2.36,6.96-8.23,7.67-13.64
						c-3.27,0.44-6.55,0.89-9.82,1.33c0.15,0.35,0.29,0.71,0.44,1.06c2.79-1.62,5.57-3.24,8.36-4.86c-2.56-2.02-5.03-4.14-7.43-6.35
						c-1.16-1.06-2.35-2.12-3.39-3.29c-0.35-0.39-0.7-0.79-1.05-1.18c-1.28-2.88-2.68-2.05-4.17,2.48
						c-1.18-0.49-2.36-0.98-3.54-1.46c4.06,4.13,7.01,9.79,12.25,12.84c0.43,0.35,0.85,0.7,1.28,1.04c0.02-1.05-0.03-1.11-0.16-0.18
						c-0.06,1.02-0.45,2.32-0.9,3.25c-1.65,3.41-4.74,3.29-7.79,1.67c0,2.88,0,5.76,0,8.63c0.75-0.43,1.5-0.86,2.26-1.3
						c-2.51-1.44-5.02-2.88-7.52-4.32c0,5.33,0,10.66,0,15.99c0,5.42,0.88,11.7-1.64,16.7c-4.94,9.79-16.89,7.91-26.04,7.91
						c-22.09,0-44.18,0-66.28,0c-22.64,0-45.29,0-67.93,0c-11.38,0-22.77,0-34.15,0c-8.34,0-19.39,2.14-26.05-4.12
						c-3.79-3.56-4.5-8.01-4.51-12.97c-0.02-5.67,0-11.35,0-17.03c0-13.14,0-26.28,0-39.42c-3.11,0.84-6.21,1.68-9.32,2.52
						c0.25,0.43,0.5,0.86,0.74,1.3c2.28-2.28,4.56-4.56,6.84-6.84c-2.12-1.54-4.36-3.46-5.2-6.03c-1.11-3.4,1.12-5.56,2-8.64
						c0.64-2.26,0.33-4.9-0.3-7.12c-0.82-2.9-3.17-5.16,1.73-5.51c-1.18-2.85-2.36-5.69-3.54-8.54c-0.5,0.5-1,1-1.5,1.5
						c2.85,1.18,5.69,2.36,8.54,3.54c0-6.85,0-13.69,0-20.54c-2.51,1.44-5.02,2.88-7.52,4.32c0.63,0.48,1.27,0.96,1.9,1.45
						c0.4-3.05,0.8-6.09,1.19-9.14c-0.68,0.12-1.43,0.24-2.13,0.17c-1.91-0.2-0.31,0.02-0.25-0.4c0.28-1.99,2.64-5.11,3.97-6.62
						c4.01-4.55,11.82-2.18,16.94-0.9c-1-2.45-1.99-4.9-2.99-7.34c-0.49,0.84-0.97,1.67-1.46,2.51c2.62-0.34,5.24-0.67,7.85-1.01
						c-0.47-0.51-2.29,0.01,0.45-0.33c1.4-0.18,2.9-0.15,4.32-0.17c2.96-0.05,5.91,0.06,8.82,0.68c4.72,1,9.16,2.94,12.2,6.79
						c1.18-2.85,2.36-5.69,3.54-8.54c-0.91,0.12-1.83,0.24-2.74,0.36c1.61,2.11,3.21,4.22,4.82,6.33c1.24-5.77,4.81-7.97,10.58-7.96
						c6.28,0.01,12.56,0.06,18.84,0.06c-0.84-3.11-1.68-6.21-2.52-9.32c-0.43,0.25-0.86,0.5-1.3,0.74c2.02,2.62,4.04,5.24,6.06,7.85
						c4-5.07,9.12-10.51,15.47-12.48c6.42-1.98,12.66,1.1,15.65,6.93c1.88-2.45,3.76-4.9,5.65-7.34c-0.68-0.18-1.37-0.36-2.05-0.54
						c0.4,3.05,0.8,6.09,1.19,9.14c4.33-2.96,9.6-6.46,15.11-5.86c5.33,0.59,8.36,5.19,9.66,10.01c2.45-1.88,4.9-3.76,7.34-5.65
						c-0.62-0.35-1.23-0.7-1.85-1.05c-0.4,3.05-0.8,6.09-1.19,9.14c8-3.03,20.27-6.42,26.73,1.32c1.62-2.79,3.24-5.57,4.86-8.36
						c-0.56-0.23-1.13-0.46-1.69-0.69c0,3.21,0,6.43,0,9.64c4.69-1.01,23.89-5.55,22.7,3.87c3.11-0.84,6.21-1.68,9.32-2.52
						c-0.48-0.63-0.96-1.27-1.45-1.9c-1.44,2.51-2.88,5.02-4.32,7.52c6.86,0,14.55-1.12,20.06,3.83c5.55,4.99,5.54,11.8,4.83,18.75
						c2.85-1.18,5.69-2.36,8.54-3.54c-0.5-0.5-1-1-1.5-1.5c-1.18,2.85-2.36,5.69-3.54,8.54c2.35,0.1,2.81,0.59,3.31,2.88
						c0.3,1.38,0.67,2.58-0.34,3.57c-0.63,0.36-1.31,0.59-2.03,0.7c-2.01,4.52-1.63,6.92,1.14,7.22c1.58,0.76,2.89,0.78,4.22,2.17
						c6.3,6.57-0.64,13.89-7.63,15.01c1.62,2.79,3.24,5.57,4.86,8.36c0.5-0.5,1-1,1.5-1.5c-2.85-1.18-5.69-2.36-8.54-3.54
						c0,3.97,0,7.93,0,11.9C262.26,172.86,272.26,172.87,272.26,166.43z"/>
				</g>
			</g>
		</g>
		<g class="st1">
			<g class="st3">
				<path class="st6" d="M271.59,230.08c-0.79-13.33-0.83-26.55-0.83-39.9c-2.51,1.44-5.02,2.88-7.52,4.32
					c3.24,1.93,7.5,2.93,11.21,2.04c6.47-1.55,12.09-10.41,10.33-17.05c-0.59-2.24-3.02-3.58-4.67-4.97
					c-2.83-2.4-5.76-4.9-8.12-7.78c0.03,0.04-1.58-2.13-1.54-2.12c0.57,0.07-0.24,2.24,0.32,1.41c0.44-0.66,0-3.3,0-4.07
					c0-2.47,0-4.94,0-7.42c-1.67,1.67-3.33,3.33-5,5c8.24-1.01,17.28-7.73,17.38-16.78c0.1-9.83-7.84-17.24-17.38-17.38
					c0,3.33,0,6.67,0,10c5.81-0.1,11.94-3.49,12.14-9.91c0.25-8.09-3.89-14.02-12.14-14.29c1.67,1.67,3.33,3.33,5,5
					c1.11-9.19-0.33-18.43-7.42-24.89c-7.49-6.83-16.59-6.19-25.98-6.19c1.61,2.11,3.21,4.22,4.82,6.33
					c0.91-3.96-0.48-8.11-3.44-10.85c-7.56-7.01-21.08-4.05-29.89-2.14c1.88,0.77,3.76,1.53,5.65,2.3
					c-8.24-10.85-24.52-8.41-35.55-4.21c2.05,1.16,4.1,2.33,6.15,3.49c-1.09-4.88-4.04-9.66-7.97-12.71
					c-9.18-7.12-20.81-2.32-29.28,3.48c2.28,0.6,4.56,1.2,6.84,1.79c-3.84-8.27-13.73-12.99-22.53-11.53
					c-9.23,1.54-17.01,8.84-22.49,16.06c1.44-0.83,2.88-1.65,4.32-2.48c-13.71,0-33.89-4.12-37.61,14.14
					c3.05-0.4,6.09-0.8,9.14-1.19C80.24,80.2,70.29,77.4,61.7,76.94c-4.11-0.22-9.92-0.44-13.76,1.46
					c-6.14,3.04-4.66,9.29-0.79,13.52c1.62-2.79,3.24-5.57,4.86-8.36c-4.3-1.15-8.93-1.98-13.39-1.92
					c-5.76,0.08-9.51,2.18-12.97,6.62c-2.75,3.52-5.83,8.07-5.4,12.76c0.65,7.04,7.7,7.64,13.24,6.68
					c-2.11-1.61-4.22-3.21-6.33-4.82c0,6.85,0,13.69,0,20.54c1.67-1.67,3.33-3.33,5-5c-3.81,0.01-7.84,1.66-10.04,4.87
					c-3.14,4.58-0.97,7.17,0.12,11.65c0.92,3.8-2.5,7.45-2.41,11.58c0.16,6.65,4.74,11.36,9.8,15.05c-0.83-1.44-1.65-2.88-2.48-4.32
					c0,15.17,0,30.34,0,45.5c0,11.16-1.34,22.97,8.19,31.02c5.53,4.67,11.99,5.51,18.86,5.51c38.96,0,77.93,0,116.89,0
					c13.43,0,26.86,0,40.3,0c6.43,0,6.45-10,0-10c-36,0-72.01,0-108.01,0c-16.76,0-33.51,0-50.27,0c-8.33,0-15.63-3.98-15.95-13.34
					c-0.26-7.73,0-15.51,0-23.24c0-10.96,0-21.92,0-32.88c0-1.23,0.18-2.71-0.18-3.91c-1.27-4.3-8.15-5.43-7.01-10.84
					c0.7-3.33,2.81-5.45,2.55-9.18c-0.23-3.35-1.49-6.67-3.02-9.62c0.17,1.28,0.34,2.57,0.5,3.85c0.37-1.61,1.47-1.7,2.16-1.7
					c2.7-0.01,5-2.28,5-5c0-6.85,0-13.69,0-20.54c0-3.5-3.18-5.36-6.33-4.82c-0.3,0.05-2.25,0.13-2.26,0.14
					c0.09-0.11,1.37,2.33,1.56,2.3c-0.09,0.02,1.14-2.8,1.17-2.85c0.94-1.7,2.62-4.75,4.4-5.73c2.91-1.62,10.12,0.34,13.66,1.29
					c4.95,1.33,8.19-4.73,4.86-8.36c-2.05-2.24-1.37,2.87-1.81,2.47c0.2,0.19,0.95-0.38,1.27-0.25c0,0,1.08,0,1.45-0.02
					c4.39-0.22,8.72-0.24,13,0.93c2.49,0.68,5.01,1.69,7.08,3.25c0.68,0.51,2.98,3.25,1.66,1.4c2.28,3.18,8.2,3.39,9.14-1.19
					c0.81-3.99,2.34-5.13,5.58-6.8c1.56-0.8-0.97-0.06,0.04,0c1.08,0.06,2.19,0,3.28,0c6.15,0,12.6,0.57,18.73,0
					c1.6-0.15,2.56-0.62,3.88-1.46c2.7-1.73-0.22,0.23,0.37-0.48c0.35-0.43,0.69-0.86,1.06-1.28c2.84-3.18,5.86-6.24,9.56-8.42
					c6.29-3.72,14.3-2.35,17.54,4.63c1.08,2.33,4.77,3.22,6.84,1.79c5.02-3.44,13.31-8.84,18.91-3.56c2.23,2.1,3.08,4.24,3.65,6.81
					c0.55,2.46,3.71,4.42,6.15,3.49c6.2-2.36,13.57-4.67,20.17-2.45c1.05,0.35,3.37,1.62,3.38,1.62c0.59,0.4,2.26,2.49,0.7,0.45
					c1.43,1.89,3.26,2.81,5.65,2.3c5.67-1.23,15.85-3.6,20.48-0.18c0.35,0.26,0.11,0.3,0.44,0.64c0.3,0.31-0.09-0.85-0.05-0.09
					c0.07,1.15,0.01-0.08,0.06-0.17c-0.11,0.23,0.05,0.86,0.02,1.14c-0.07,0.7,0.28-1.49,0.09-0.64c-0.72,3.14,1.46,6.33,4.82,6.33
					c6.3,0,13.79-1.21,18.9,3.26c5.26,4.59,5.27,11.34,4.49,17.82c-0.33,2.75,2.56,4.92,5,5c0.77,0.02,1.88,0.51,1.41-0.03
					c0.38,0.44,1.04,3.48,0.75,3.96c0.32-0.53-1.48,0.25-2.16,0.26c-6.43,0.12-6.45,9.9,0,10c2.97,0.04,5.1,0.96,6.4,3.7
					c0.37,0.79,0.58,1.65,0.79,2.5c0.28,1.18,0.34,0.48,0.19,1.19c-0.44,2.13-2.22,4.22-4.13,5.39c-0.94,0.58-1.8,0.82-2.81,1.2
					c-0.58,0.22-2.88,0.49-0.44,0.19c-2.69,0.33-5,2.02-5,5c0,4.96-1.26,11.5,1.51,15.87c3.5,5.51,9.05,9.97,14.15,13.95
					c-0.49-1.18-0.98-2.36-1.46-3.54c-0.37,2.79-0.98,6.18-4.01,6.02c-1.24-0.07-1.53-0.3-2.67-0.97c-3.27-1.94-7.52,0.55-7.52,4.32
					c0,13.36,0.04,26.57,0.83,39.9C261.97,236.47,271.97,236.52,271.59,230.08L271.59,230.08z"/>
			</g>
			<g class="st3">
				<g>
					<path class="st6" d="M273.09,230.08c-0.85-13.32-0.83-26.56-0.83-39.9c0-3.81-4.24-6.2-7.52-4.32c-0.75,0.43-1.5,0.86-2.26,1.3
						c-3.14,1.8-3.36,6.89,0,8.63c9.28,4.82,19.25,1.99,22.71-8.32c1.47-4.38,1.95-8.65-1.58-12.03
						c-4.19-4.01-8.81-7.15-12.11-12.02c-2.3-3.39-8.04-3.22-9.14,1.19c-0.4,1.59-0.11,2.84,0.58,4.28
						c2.21,4.62,9.32,2.18,9.32-2.52c0-3.94,0-7.89,0-11.83c0-4.33-5.47-6.6-8.54-3.54c-0.5,0.5-1,1-1.5,1.5
						c-3.81,3.81,0.21,9.11,4.86,8.36c10.66-1.72,19.73-11.9,16.8-22.95c-1.45-5.49-4.96-10.2-10.24-12.47
						c-3.94-1.7-10.23-2.95-13.11,1.2c-2.59,3.74-0.66,9.1,3.88,10.06c4.31,0.91,9.73-1.27,12.47-4.63
						c3.34-4.09,2.86-9.95,1.11-14.67c-2.02-5.43-6.78-7.48-12.25-7.72c-4.4-0.19-6.51,5.57-3.54,8.54c0.5,0.5,1,1,1.5,1.5
						c3.3,3.3,8.11,0.59,8.54-3.54c0.99-9.67-0.33-18.95-7.76-25.82c-7.74-7.16-17.24-6.76-27.14-6.76c-3.44,0-6.7,4.39-4.32,7.52
						c0.48,0.63,0.96,1.27,1.45,1.9c3.11,4.08,8.68,2.56,9.32-2.52c2.41-19.18-24.49-15.87-35.36-13.51c-5.33,1.15-4.12,7.97,0,9.64
						c0.56,0.23,1.13,0.46,1.69,0.69c5.11,2.08,7.67-5,4.86-8.36c-8.85-10.59-25.1-8.2-36.46-3.89c-3.83,1.45-5.2,6.86-1.19,9.14
						c0.62,0.35,1.23,0.7,1.85,1.05c3.79,2.15,8.49-1.4,7.35-5.65c-2.08-7.68-7.31-14.7-15.3-16.76
						c-8.66-2.23-17.15,1.84-24.15,6.63c-3.41,2.34-3.19,7.99,1.19,9.14c0.68,0.18,1.37,0.36,2.05,0.54
						c4.38,1.15,7.61-3.51,5.65-7.34c-4.23-8.25-13.37-13.39-22.64-12.37c-9.91,1.09-18.24,8.35-24.19,15.89
						c-3.32,4.21,0.77,10.89,6.06,7.85c0.43-0.25,0.86-0.5,1.3-0.74c4.31-2.47,2.41-9.32-2.52-9.32c-5.17,0-10.34,0.05-15.51,0
						c-3.71-0.03-7.48-0.27-11.09,0.81c-6.62,1.98-11.05,7.87-12.46,14.44c-0.6,2.79,1.38,6.78,4.82,6.33
						c0.91-0.12,1.83-0.24,2.74-0.36c4.48-0.58,6.37-4.96,3.54-8.54c-6.9-8.72-19.42-10.74-29.86-10.34
						c-4.5,0.17-9.62,0.61-12.49,4.56c-3.24,4.47-0.84,9.37,2.41,12.96c2.18,2.4,6.3,1.66,7.85-1.01c0.49-0.84,0.97-1.67,1.46-2.51
						c1.59-2.73,0.16-6.56-2.99-7.34c-6.08-1.52-13.51-3.14-19.68-1.24c-5.5,1.69-9.25,6.92-11.85,11.79
						c-2.37,4.43-3.49,10.5,0.58,14.36c3.35,3.17,8.24,2.86,12.43,2.13c4.76-0.83,4.2-6.85,1.19-9.14c-0.63-0.48-1.27-0.96-1.9-1.45
						c-3.13-2.38-7.52,0.88-7.52,4.32c0,6.85,0,13.69,0,20.54c0,4.33,5.47,6.6,8.54,3.54c0.5-0.5,1-1,1.5-1.5
						c2.9-2.9,0.9-8.85-3.54-8.54c-4.95,0.35-9.62,2.25-12.06,6.83c-1.08,2.02-1.56,4.2-1.09,6.47c0.46,2.23,2.32,4.49,2,6.85
						c-0.32,2.32-2.16,4.53-2.47,7.06c-0.31,2.5-0.09,4.96,0.72,7.36c1.67,4.93,5.53,8.41,9.62,11.37c4.23,3.06,9.17-2.78,6.84-6.84
						c-0.25-0.43-0.5-0.86-0.74-1.3c-2.47-4.31-9.32-2.41-9.32,2.52c0,10.11,0,20.21,0,30.32c0,9.86-0.66,19.98,0.06,29.81
						c0.52,7.19,3.88,13.84,9.61,18.28c6.88,5.32,14.83,5.14,23.1,5.14c39.66,0,79.32,0,118.98,0c9.92,0,19.84,0,29.76,0
						c2.93,0,6.21,0.43,8.56-1.69c2.2-1.98,2.69-5.5,1.27-8.06c-1.73-3.11-5.03-3.25-8.19-3.25c-4.77,0-9.54,0-14.31,0
						c-9.8,0-19.6,0-29.4,0c-19.66,0-39.33,0-58.99,0c-9.77,0-19.55,0-29.32,0c-4.8,0-9.59,0-14.39,0c-4.55,0-9.74,0.68-14.21-0.18
						c-10.68-2.05-9.6-13.35-9.53-21.66c0.1-10.78,0.01-21.56,0.01-32.34c0-5.3,0.72-11.1,0-16.34c-0.61-4.48-4.13-5.24-6.35-8.64
						c-2.27-3.47,1.47-6.92,1.72-10.62c0.29-4.39-1.34-8.64-3.24-12.49c-2.1-4.26-9.96-2.42-9.32,2.52c0.05,0.39,0.1,0.77,0.15,1.16
						c0.68,5.22,8.2,7.23,9.82,1.33c0.26-0.93,3.45-1.17,4.29-1.73c1.4-0.93,2.33-2.41,2.74-4.04c0.94-3.72,0.18-8.71,0.18-12.53
						c0-3.74,1.13-9.39-0.97-12.74c-1.07-1.71-5.2-4.47-7.26-2.87c0.5,4.18,1.12,4.93,1.86,2.25c0.47-0.83,0.98-1.64,1.52-2.43
						c0.91-1.35,1.63-2.66,3.24-3.28c3.98-1.54,9.25,1.56,13.23,1.67c2.93,0.08,5.5-1.57,6.49-4.38c0.58-1.66,0.42-3.19-0.29-4.76
						c-0.53-1.17-1.22-3.04-1.4-0.97c-0.49,1.18-0.98,2.36-1.46,3.54c-0.72,0.86-1.38,0.19-0.3,0.39c1.06,0.19,2.84-0.22,3.99-0.24
						c2.46-0.05,4.95-0.04,7.39,0.35c4.37,0.69,8.75,2.28,11.71,5.7c3.9,4.5,10.26-1.23,7.85-6.06c-0.6-1.2-1.83-1.93-3.04-2.36
						c-4.55-1.62-8.77,5.25-4.86,8.36c2.94,2.35,7.03,3.17,9.77-0.09c2.78-3.3,1.38-7.32,6.67-8.39c5.66-1.15,4.16-9.71-1.33-9.82
						c-0.07,0-0.13,0-0.2,0c-2.98-0.06-6.02,3.29-4.82,6.33c0.01,0.01,0.01,0.03,0.02,0.04c0.87,2.22,2.42,3.49,4.82,3.67
						c4.6,0.35,9.35,0,13.97,0c4.03,0,9.02,0.89,12.54-1.43c-2.28-2.28-4.56-4.56-6.84-6.84c-0.01,0.01-0.01,0.03-0.02,0.04
						c-3,5.79,4.94,10.26,8.63,5.05c3.09-4.36,8.58-9.5,13.97-10.53c2.54-0.49,5.06,0.03,7.25,1.4c2.53,1.59,3.16,4.09,5.25,5.97
						c4.87,4.38,9.58-0.89,14.06-3c5.95-2.81,10.86-1.54,13.49,4.7c2.18,5.16,11.31,1.4,9.14-3.85c-0.02-0.04-0.03-0.08-0.05-0.13
						c-2.42-5.85-12.07-3.33-9.64,2.66c1.19,2.94,1.75,6.15,5.16,7.3c3.67,1.23,7.81-1.44,11.33-2.28c4.11-0.98,8.9-1.44,12.88,0.33
						c0.81,0.36,3.6,2.74,1.62,0.82c0.51,0.49,1.07,0.92,1.51,1.48c3.52,4.38,11.23-1.48,7.85-6.06c-0.07-0.09-0.13-0.18-0.2-0.27
						c-2.62,2.02-5.24,4.04-7.85,6.06c4.62,3.86,10.09,0.94,15.51,0.46c2.65-0.23,5.85-0.54,8.43,0.3c0.96,0.31,1.29,0.61,2.08,0.98
						c2.57,1.22-0.77-0.71,0.12,0.31c3.68,4.22,11.26-1.47,7.85-6.06c-0.01-0.01-0.02-0.03-0.03-0.04
						c-3.76-5.05-12.32-0.36-8.63,5.05c0.24,0.36,0.44,0.74,0.65,1.11c2.62-2.02,5.24-4.04,7.85-6.06
						c-0.01-0.01-0.02-0.02-0.03-0.03c-3.34-3.53-9.99,0.1-8.36,4.86c0.14,0.36,0.24,0.72,0.31,1.1c1.4,5.75,9.4,4.06,9.82-1.33
						c0-0.01,0-0.02,0-0.04c-3.33,0-6.67,0-10,0c0.06,0.49,0.07,0.98,0.02,1.48c-0.08,5.92,7.95,6.42,9.82,1.33
						c0.01-0.03,0.02-0.05,0.03-0.08c-3.21-0.89-6.43-1.77-9.64-2.66c-1.45,4.38,2.22,7.89,6.22,8.38
						c6.67,0.81,13.48-1.77,18.75,3.77c4.89,5.15,2.33,10.24,3.24,16.47c0.35,2.4,1.69,4.21,3.89,5.15c0.18,0.08,3.4,0.51,2.67,0.12
						c0.1,0.47,0.2,0.93,0.3,1.4c1.22,0.11,1.07,0.23-0.45,0.36c-2.7,0.19-5,2.14-5,5c0,1,0,2,0,3c0,2.78,2.29,4.9,5,5
						c2.8,0.1,6.27,2.25,5.87,5.53c-0.42,3.44-4.53,5.36-7.45,5.85c-6.4,1.07-3.59,10.52,2.66,9.64c0.08-0.01,0.17-0.02,0.25-0.03
						c-1.28-3.05-2.57-6.09-3.85-9.14c-3.38,1.45-3.87,4.4-3.98,7.73c-0.14,4-0.74,8.93,0.68,12.74
						c2.43,6.52,10.23,12.09,15.43,16.22c3.35,2.67,10.51,0.33,8.36-4.86c-0.15-0.35-0.29-0.71-0.44-1.06
						c-2.21-5.34-9.07-4.38-9.82,1.33c-0.34,2.6-0.55,3.44-2.8,4.4c-1.56-0.55-1.76-0.59-0.58-0.11c-0.18-0.09-0.36-0.17-0.54-0.26
						c-2.65-0.92-4.86-1.75-7.44,0.05c-3.11,2.18-2.84,5.67-2.86,9.08c-0.03,4.75-0.1,9.49-0.08,14.24
						c0.02,4.43,0.15,8.85,0.41,13.28c0.2,3.47-0.37,8.14,1.21,11.32c2.68,5.4,10.82,4.58,12.12-1.4c1.36-6.27-8.28-8.95-9.64-2.66
						c4.92,1.83,7.14,1.31,6.65-1.54c-0.06-0.95-0.11-1.91-0.17-2.86c-0.08-1.27-0.16-2.55-0.23-3.82
						c-0.19-3.47-0.3-6.95-0.34-10.43c-0.03-3.16-0.02-6.33,0.01-9.49c0.02-2.77-0.73-7.48,0.26-10.07c-0.77,1-1.53,1.99-2.3,2.99
						c0.29-0.17,0.58-0.34,0.87-0.51c-1.28,0.17-2.57,0.34-3.85,0.5c4.08,0.71,7.25,2.78,11.62,0.92c5.54-2.36,6.96-8.23,7.67-13.64
						c-3.27,0.44-6.55,0.89-9.82,1.33c0.15,0.35,0.29,0.71,0.44,1.06c2.79-1.62,5.57-3.24,8.36-4.86c-3.77-3-7.45-6.13-10.72-9.67
						c-1.74-1.88-2.4-2.91-2.49-5.53c-0.04-1.27,0-2.55,0.01-3.83c0-0.64,0.01-1.28,0.01-1.91c0.24-1.3-0.08-1.31-0.96-0.05
						c5.69-2.44,1.18-9.85-3.85-9.14c-0.08,0.01-0.17,0.02-0.25,0.03c0.89,3.21,1.77,6.43,2.66,9.64
						c7.25-1.21,14.97-7.88,14.74-15.74c-0.26-8.98-7.26-14.97-15.82-15.28c1.67,1.67,3.33,3.33,5,5c0-1,0-2,0-3
						c-1.67,1.67-3.33,3.33-5,5c5.82-0.41,11.03-3.41,10.59-9.93c-0.19-2.76-0.86-5.83-2.59-8.03c-1.98-2.5-4.66-2.21-6.54-3.01
						c0.77,1,1.53,1.99,2.3,2.99c-0.73-1.74,0.08-4.97,0.01-6.87c-0.08-2.05-0.25-4.15-0.7-6.15c-0.87-3.91-3.36-7.35-6.17-10.15
						c-2.9-2.89-6.79-4.93-10.8-5.68c-4.38-0.82-9.89,0.8-14.04-0.55c1,0.77,1.99,1.53,2.99,2.3c-0.01,0.7-0.02,1.39-0.02,2.09
						c2.05-6.17-7.45-8.62-9.64-2.66c-0.01,0.03-0.02,0.05-0.03,0.08c3.27,0.44,6.55,0.89,9.82,1.33c0.05-0.5,0.04-0.99-0.02-1.48
						c-0.64-6.37-9.5-6.49-10,0c0,0.01,0,0.02,0,0.04c3.27-0.44,6.55-0.89,9.82-1.33c-0.07-0.38-0.17-0.74-0.31-1.1
						c-2.79,1.62-5.57,3.24-8.36,4.86c0.01,0.01,0.02,0.02,0.03,0.03c3.94,4.16,10.66-1.17,7.85-6.06
						c-0.21-0.37-0.41-0.75-0.65-1.11c-2.88,1.68-5.76,3.36-8.63,5.05c0.01,0.01,0.02,0.03,0.03,0.04c2.62-2.02,5.24-4.04,7.85-6.06
						c-0.63-0.73-1.36-1.25-2.11-1.86c-2.46-2,0.61,0.19-0.85-0.53c-2.35-1.16-4.69-1.8-7.31-2.08c-3.06-0.33-6.1-0.2-9.15,0.14
						c-2.98,0.33-6.53,1.67-9.5,1.44c1.18,0.49,2.36,0.98,3.54,1.46c-0.25-0.21-0.49-0.41-0.74-0.62c-4-3.33-11.48,1.14-7.85,6.06
						c0.07,0.09,0.13,0.18,0.2,0.27c2.62-2.02,5.24-4.04,7.85-6.06c-2.44-3.04-6.66-4.89-10.34-5.7c-3.65-0.81-7.38-0.8-11.06-0.3
						c-1.76,0.24-3.49,0.56-5.2,1c-1.81,0.47-4.62,2.13-6.48,1.9c1.18,0.49,2.36,0.98,3.54,1.46c0.21,0.27-0.29-1.37-0.38-1.6
						c-3.21,0.89-6.43,1.77-9.64,2.66c0.02,0.04,0.03,0.08,0.05,0.13c3.05-1.28,6.09-2.57,9.14-3.85
						c-2.42-5.74-7.38-10.28-13.67-11.13c-3.46-0.47-6.91,0.16-10.16,1.39c-1.63,0.62-3.21,1.35-4.74,2.18
						c-1.47,0.8-3.32,2.63-5.01,2.85c1.28,0.17,2.57,0.34,3.85,0.5c-0.41-0.31-2.08-3.35-2.99-4.24c-1.4-1.37-3.11-2.57-4.85-3.46
						c-3.8-1.95-8.06-2.7-12.28-2.03c-8.71,1.4-16.5,8.41-21.45,15.4c2.88,1.68,5.76,3.36,8.63,5.05c0.01-0.01,0.01-0.03,0.02-0.04
						c2.16-4.17-2.41-9.75-6.84-6.84c1.03,0.12,0.59,0.14-1.31,0.06c-1.17,0-2.34,0-3.5,0c-1.83,0-3.66,0-5.49,0
						c-3.7,0-7.48,0.28-11.17,0c1.61,1.22,3.21,2.45,4.82,3.67c-0.01-0.01-0.01-0.03-0.02-0.04c-1.61,2.11-3.21,4.22-4.82,6.33
						c0.07,0,0.13,0,0.2,0c-0.44-3.27-0.89-6.55-1.33-9.82c-3.06,0.62-5.92,2.17-8.09,4.42c-2.37,2.46-2.61,5.29-4.17,8.06
						c1-0.77,1.99-1.53,2.99-2.3c0.85,0.29,1.71,0.58,2.56,0.87c-1.62,2.79-3.24,5.57-4.86,8.36c0.01,0,0.02,0.01,0.02,0.01
						c-1-0.77-1.99-1.53-2.99-2.3c0.01,0.02,0.02,0.04,0.03,0.06c2.62-2.02,5.24-4.04,7.85-6.06c-6.71-7.74-18.08-9.36-27.74-8.93
						c-3.26,0.14-7.48,0.34-9.59,3.25c-2.64,3.65,0.21,5.86,1.69,9.04c-0.17-1.28-0.34-2.57-0.5-3.85c0.13-0.22,0.26-0.45,0.4-0.67
						c1.18-0.49,2.36-0.98,3.54-1.46c-2.38,0.18-5.38-0.97-7.75-1.27c-2.56-0.33-5.03-0.57-7.59-0.19
						c-4.89,0.71-7.68,3.62-10.38,7.55c-2.15,3.14-4.9,7.57-3.55,11.56c0.63,1.89,2.19,3.28,4.05,3.93c0.8,0.28,1.9,0.43,2.75,0.46
						c0.73-0.01,1.45-0.07,2.17-0.18c0.93-0.05,0.89-0.14-0.14-0.28c-0.77-1-1.53-1.99-2.3-2.99c0.89,2.75,0.1,6.94,0.1,9.82
						c0,1.56,0,3.11,0,4.67c0,0.93,0.44,3.64,0.24,4.13c1-0.77,1.99-1.53,2.99-2.3c-4.88,2.06-8.46,2.32-10.08,8.21
						c3.27,0.44,6.55,0.89,9.82,1.33c-0.05-0.39-0.1-0.77-0.15-1.16c-3.11,0.84-6.21,1.68-9.32,2.52c1.78,3.61,2.32,6,0.65,9.57
						c-1.46,3.12-1.8,6.47-0.86,9.79c0.79,2.82,2.57,5.32,4.65,7.34c0.56,0.54,1.3,1.24,1.99,1.66c0.79,0.48,1.09,1.51,0.54,0.05
						c-0.87-2.32-0.47,1.46-0.47,2.08c0,1.26,0,2.52,0,3.78c0,9.42,0,18.84,0,28.27c0,8.38-0.82,17.17,0.17,25.5
						c0.77,6.52,4.45,12.22,9.94,15.8c6.51,4.25,14.31,3.38,21.72,3.38c18.42,0,36.84,0,55.26,0c18.39,0,36.78,0,55.17,0
						c8.8,0,17.59,0,26.39,0c2.11,0,4.22,0,6.33,0c1.28,0,5.17,0.72,6.03,0c0.19-1.17,0.38-2.33,0.58-3.5
						c1.62-2.63,1.5-3.8-0.34-3.5c-0.94-0.41-2.6,0-3.65,0c-2.44,0-4.87,0-7.31,0c-37.35,0-74.71,0-112.06,0c-10.1,0-20.2,0-30.3,0
						c-8.81,0-17.94-1.07-20.44-11.15c-1.11-4.48-0.48-9.64-0.48-14.22c0-5.28,0-10.57,0-15.85c0-10.77,0-21.54,0-32.32
						c-3.11,0.84-6.21,1.68-9.32,2.52c0.25,0.43,0.5,0.86,0.74,1.3c2.28-2.28,4.56-4.56,6.84-6.84c-2.12-1.54-4.36-3.46-5.2-6.03
						c-1.11-3.4,1.12-5.56,2-8.64c0.64-2.26,0.33-4.9-0.3-7.12c-0.82-2.9-3.17-5.16,1.73-5.51c-1.18-2.85-2.36-5.69-3.54-8.54
						c-0.5,0.5-1,1-1.5,1.5c2.85,1.18,5.69,2.36,8.54,3.54c0-6.85,0-13.69,0-20.54c-2.51,1.44-5.02,2.88-7.52,4.32
						c0.63,0.48,1.27,0.96,1.9,1.45c0.4-3.05,0.8-6.09,1.19-9.14c-0.68,0.12-1.43,0.24-2.13,0.17c-1.91-0.2-0.31,0.02-0.25-0.4
						c0.28-1.99,2.64-5.11,3.97-6.62c4.01-4.55,11.82-2.18,16.94-0.9c-1-2.45-1.99-4.9-2.99-7.34c-0.49,0.84-0.97,1.67-1.46,2.51
						c2.62-0.34,5.24-0.67,7.85-1.01c-0.47-0.51-2.29,0.01,0.45-0.33c1.4-0.18,2.9-0.15,4.32-0.17c2.96-0.05,5.91,0.06,8.82,0.68
						c4.72,1,9.16,2.94,12.2,6.79c1.18-2.85,2.36-5.69,3.54-8.54c-0.91,0.12-1.83,0.24-2.74,0.36c1.61,2.11,3.21,4.22,4.82,6.33
						c1.24-5.77,4.81-7.97,10.58-7.96c6.28,0.01,12.56,0.06,18.84,0.06c-0.84-3.11-1.68-6.21-2.52-9.32
						c-0.43,0.25-0.86,0.5-1.3,0.74c2.02,2.62,4.04,5.24,6.06,7.85c4-5.07,9.12-10.51,15.47-12.48c6.42-1.98,12.66,1.1,15.65,6.93
						c1.88-2.45,3.76-4.9,5.65-7.34c-0.68-0.18-1.37-0.36-2.05-0.54c0.4,3.05,0.8,6.09,1.19,9.14c4.33-2.96,9.6-6.46,15.11-5.86
						c5.33,0.59,8.36,5.19,9.66,10.01c2.45-1.88,4.9-3.76,7.34-5.65c-0.62-0.35-1.23-0.7-1.85-1.05c-0.4,3.05-0.8,6.09-1.19,9.14
						c8-3.03,20.27-6.42,26.73,1.32c1.62-2.79,3.24-5.57,4.86-8.36c-0.56-0.23-1.13-0.46-1.69-0.69c0,3.21,0,6.43,0,9.64
						c4.69-1.01,23.89-5.55,22.7,3.87c3.11-0.84,6.21-1.68,9.32-2.52c-0.48-0.63-0.96-1.27-1.45-1.9c-1.44,2.51-2.88,5.02-4.32,7.52
						c6.86,0,14.55-1.12,20.06,3.83c5.55,4.99,5.54,11.8,4.83,18.75c2.85-1.18,5.69-2.36,8.54-3.54c-0.5-0.5-1-1-1.5-1.5
						c-1.18,2.85-2.36,5.69-3.54,8.54c2.35,0.1,2.81,0.59,3.31,2.88c0.3,1.38,0.67,2.58-0.34,3.57c-0.63,0.36-1.31,0.59-2.03,0.7
						c-2.01,4.52-1.63,6.92,1.14,7.22c1.58,0.76,2.89,0.78,4.22,2.17c6.3,6.57-0.64,13.89-7.63,15.01c1.62,2.79,3.24,5.57,4.86,8.36
						c0.5-0.5,1-1,1.5-1.5c-2.85-1.18-5.69-2.36-8.54-3.54c0,3.95,0,7.89,0,11.83c3.11-0.84,6.21-1.68,9.32-2.52
						c-0.04-0.08-0.08-0.16-0.12-0.24c0.17,1.28,0.34,2.57,0.5,3.85c0.01-0.06,0.03-0.12,0.04-0.18c-3.05,0.4-6.09,0.8-9.14,1.19
						c2.85,4.2,6.95,9.84,11.55,12.3c0.47,0.38,0.95,0.77,1.42,1.15c0.6-1.12,0.75-1.15,0.46-0.09c0.13,1.05-0.56,2.81-1.06,3.78
						c-1.74,3.29-4.61,3.16-7.71,1.55c0,2.88,0,5.76,0,8.63c0.75-0.43,1.5-0.86,2.26-1.3c-2.51-1.44-5.02-2.88-7.52-4.32
						c0,13.35-0.02,26.58,0.83,39.9C263.5,236.47,273.5,236.52,273.09,230.08z"/>
				</g>
			</g>
		</g>
		<g>
			<g>
				<path class="st6" d="M45.69,185.95c0,7.34-1.91,16.41,3.36,22.42c9.46,10.78,27.79,6.25,40.04,4.57
					c19.25-2.65,38.48-5.56,57.97-4.99c19.45,0.56,38.82,2.54,58.26,3.27c6.46,0.24,13.29,0.22,19.49-1.86
					c8.62-2.88,12.49-10.02,12.13-18.88c-0.26-6.41-10.26-6.45-10,0c0.29,7.21-3.15,9.41-9.85,10.4
					c-5.02,0.74-10.13,0.43-15.18,0.18c-16.89-0.84-33.74-2.34-50.64-2.98c-17.38-0.65-34.43,1.02-51.63,3.37
					c-7.58,1.03-15.14,2.22-22.75,3.04c-5.51,0.59-12.28,1.67-17.51-0.7c-2.06-0.93-2.49-2.16-3.83-3.64
					c0.51,0.56,0.15,0.17-0.01-0.34c0.52,1.69,0.09,1.11,0.16,0.02c0.3-4.59,0-9.29,0-13.89C55.69,179.51,45.69,179.5,45.69,185.95
					L45.69,185.95z"/>
			</g>
			<g>
				<g>
					<path class="st6" d="M44.56,185.95c0,6.07-1.51,14.28,1.37,19.86c2.65,5.12,7.81,8.36,13.33,9.61
						c13.37,3.03,28.53-1.2,41.85-3.02c15.48-2.12,31-3.76,46.65-3.3c15.5,0.46,30.97,1.75,46.45,2.67
						c11.77,0.7,27.94,3.19,37.8-5.17c4.31-3.66,6.18-9.04,6.1-14.61c-0.07-4.8-3.9-9.57-9.1-6.87c-5.73,2.98-0.72,10.47-6.73,13.36
						c-6.13,2.95-14.77,1.73-21.32,1.42c-15.6-0.74-31.16-2.15-46.77-2.82c-17.54-0.75-34.74,0.58-52.12,2.92
						c-8.48,1.14-16.93,2.51-25.44,3.4c-4.71,0.49-18.51,2.95-20.03-3.95c-1.2-5.45-10.15-4.33-9.82,1.33
						c0,0.06,0.01,0.13,0.01,0.19c0.31,5.34,8.61,7.14,9.82,1.33c0.62-2.98,0.21-6.3,0.2-9.33c-0.01-3.03,0.7-6.87-0.66-9.65
						c-2.64-5.39-9.67-3.86-11.41,1.29c-2.06,6.11,7.6,8.74,9.64,2.66c0.08-0.23,0.16-0.46,0.23-0.7c-0.77,1-1.53,1.99-2.3,2.99
						c-1.09,0-2.18,0-3.27,0c-0.77-1-1.53-1.99-2.3-2.99c0.67,1.98,0.04,5.31,0.06,7.34c0.01,1.72,0.5,4.09,0.15,5.73
						c3.27,0.44,6.55,0.89,9.82,1.33c0-0.06-0.01-0.13-0.01-0.19c-3.27,0.44-6.55,0.89-9.82,1.33c3.7,16.8,29.04,11.51,40.55,9.93
						c18.91-2.59,37.72-5.47,56.85-5.25c18.9,0.21,37.73,2.21,56.6,3.1c8.28,0.39,17.48,1.03,25.3-2.33
						c2.96-1.27,5.62-3.2,7.31-6.01c2.11-3.51,1.27-6.84,2.26-10.45c-0.77,1-1.53,1.99-2.3,2.99c-1.09,0-2.18,0-3.26,0
						c-0.77-1-1.53-1.99-2.3-2.99c1.16,2.89-0.7,6.69-3.04,8.37c-2.74,1.96-6.68,2.46-9.92,2.73c-8.16,0.69-16.5-0.18-24.65-0.69
						c-17.67-1.11-35.46-2.91-53.19-2.49c-17.14,0.4-34.15,3.06-51.1,5.45c-7.66,1.08-16.43,2.95-24.13,1.29
						c-3.79-0.82-6.89-2.61-7.36-6.68c-0.49-4.26,0-8.86,0-13.15C54.56,179.51,44.56,179.5,44.56,185.95z"/>
				</g>
			</g>
		</g>
		<g>
			<path class="st6" d="M129.68,191.55c5.17,0,10.34,0.09,15.51,0c1.13-0.02,2.26-0.07,3.39-0.03c1.57,0.05,0.63,0.15,2.02,0.3
				c0.75,0.08,0.41-0.05,0.47,0.2c0.11,0.51-2.14-4.02-1.24-3.39c0.35,0.24-4.75,4.61-5.86,5.19c-2.92,1.51-6.94,1.51-10.26,0.19
				c-1.34-0.53-2.57-1.31-3.77-2.1c-0.27-0.18-0.8-0.63,0.31,0.25c-0.82-0.65-1.61-1.34-2.33-2.09c-0.05-0.06-1.09-0.97-0.55-0.57
				c-1.24-0.91,0.28-0.79-0.31,0.08C124.8,192.9,127.05,191.6,129.68,191.55c6.43-0.12,6.45-10.12,0-10
				c-4.4,0.08-10.17,0.61-12.06,5.34c-1.47,3.66,0.44,7.15,2.88,9.85c5.73,6.35,14.88,9.53,23.25,7.68
				c6.42-1.42,16.01-7.81,15.9-15.08c-0.11-6.99-8.31-7.92-13.59-7.83c-5.46,0.1-10.92,0.04-16.38,0.04
				C123.24,181.55,123.23,191.55,129.68,191.55z"/>
		</g>
		<g>
			<path class="st6" d="M82.24,162.38c-0.14,3.56-1.8,9.35-6.33,9.35c-4.42,0-6.33-5.77-6.33-9.35c0-3.48,1.72-8.86,5.85-9.29
				C80.23,152.59,82.09,158.7,82.24,162.38c0.26,6.41,10.26,6.45,10,0c-0.37-9.17-5.99-19.35-16.33-19.35
				c-10.09,0-16.3,10.17-16.33,19.35c-0.03,9.18,6.27,19.35,16.33,19.35c10.33,0,15.96-10.18,16.33-19.35
				C92.49,155.95,82.49,155.96,82.24,162.38z"/>
		</g>
		<g>
			<path class="st6" d="M71.97,160.72c-0.05,1.12-0.65,1.9-0.77,2.89c-0.08,0.71-0.91,0.05,0.03,0.26c0.88,0.2-0.01-0.09-0.18-0.64
				c-0.29-0.9-0.56-1.51-0.56-2.51c0-0.67,0.05-1.5,0.35-2.14c0.42-0.91,1.09-1.02,0.39-1.02c-0.8,0-0.09-0.31-0.03,0.26
				C71.32,158.82,71.92,159.6,71.97,160.72c0.28,6.41,10.28,6.45,10,0c-0.27-6.08-3.73-13.16-10.74-13.16
				c-6.81,0-10.74,7.07-10.74,13.16c0,5.95,3.74,12.93,10.38,13.12c7.19,0.21,10.82-6.85,11.1-13.12
				C82.25,154.29,72.25,154.3,71.97,160.72z"/>
		</g>
		<g>
			<path class="st6" d="M214.04,159.11c-0.19,4.91-2.94,11.16-8.72,11.16c-5.65,0-8.7-6.24-8.72-11.16
				c-0.02-4.92,3.09-11.16,8.72-11.16C211.1,147.95,213.85,154.2,214.04,159.11c0.24,6.41,10.25,6.45,10,0
				c-0.4-10.42-7.27-21.16-18.72-21.16c-11.18,0-18.69,10.73-18.72,21.16c-0.03,10.43,7.58,21.16,18.72,21.16
				c11.45,0,18.32-10.74,18.72-21.16C224.29,152.68,214.29,152.69,214.04,159.11z"/>
		</g>
		<g>
			<path class="st6" d="M201.6,157.24c-0.04,0.91-0.42,4.3-1.95,4.19c-1.52-0.11-1.95-3.17-1.95-4.19c0-0.96,0.45-4.19,1.95-4.19
				C201.2,153.06,201.55,156.24,201.6,157.24c0.3,6.41,10.3,6.44,10,0c-0.32-6.71-4.32-14.19-11.95-14.19
				c-7.38,0-11.95,7.47-11.95,14.19c0,6.56,4.33,13.91,11.52,14.15c7.84,0.27,12.06-7.22,12.39-14.15
				C211.9,150.81,201.9,150.82,201.6,157.24z"/>
		</g>
	</g>
</g>
<g id="Layer_1">
	<g>
		<g>
			<path class="st0" d="M32.16,166.43c0,0-6.54,10.76-10.77,14.08s2.52,8.76,6.65,8.46c4.13-0.3,4.13-3.02,4.13-3.02"/>
			<g>
				<path d="M30.86,165.67c-2.65,4.35-5.53,8.83-9.11,12.48c-0.98,1-2.22,1.77-2.82,3.08c-0.66,1.45-0.39,3.06,0.4,4.4
					c1.58,2.69,4.94,4.66,8.04,4.84c2.7,0.16,6.24-1.4,6.29-4.52c0.03-1.93-2.97-1.93-3,0c0,0.21,0.16-0.31-0.02,0.06
					c-0.12,0.26-0.06,0.33-0.33,0.61c-0.76,0.79-2.15,0.98-3.2,0.84c-2.01-0.28-5.01-1.92-5.51-4.07c-0.24-1.01,0.53-1.53,1.23-2.13
					c0.94-0.8,1.77-1.73,2.57-2.66c1.89-2.22,3.59-4.6,5.22-7.01c0.98-1.44,1.93-2.9,2.84-4.39
					C34.46,165.53,31.87,164.02,30.86,165.67L30.86,165.67z"/>
			</g>
		</g>
		<g id="_x31__10_">
			<path class="st0" d="M265.76,166.43v-11.9c0,0,10.27-1.11,12.38-11.58c0,0-0.3-12.89-12.38-12.59c0,0,7.85,0,7.1-6.04
				c-0.76-6.04-1.66-8.16-7.1-8.16c0,0,1.67-13.17-2.84-17.67c-0.01-0.01-0.01-0.01-0.02-0.02c-3.22-5.04-8.85-8.39-15.27-8.39
				h-10.27c0,0,3.32-13.69-27.19-6.85c0,0-7.85-10.68-29.91-1.92c0,0-5.14-23.76-29.91-6.24c0,0-4.17-9.36-15.08-9.36
				c-10.9,0-21.31,13.9-21.31,13.9H91.16c0,0-8.46,1.01-9.97,10.47c0,0-6.65-9.57-25.98-8.06c0,0-11.18-0.3-4.53,6.34
				c0,0-14.4-3.93-18.53,0c-4.13,3.93-13.39,17.22,0,14.5v5.34v15.2c0,0-6.21-0.13-6.98,5.37c0,0,4.06,7.62,1.64,11.24
				c-2.42,3.62-4.43,10.56,5.34,17.21v36v22.91c0,10.01,8.11,18.12,18.12,18.12h197.35c10.01,0,18.12-8.11,18.12-18.12v-25.98
				c0,0,12.38,7.55,14.2-9.36C279.96,180.81,268.18,171.68,265.76,166.43z"/>
			<g>
				<path d="M267.26,166.43c0-3.97,0-7.93,0-11.9c-0.5,0.5-1,1-1.5,1.5c5.23-0.58,10.27-4.01,12.52-8.78
					c0.62-1.32,1.35-2.96,1.35-4.44c0-0.69-0.14-1.42-0.25-2.1c-0.42-2.49-1.36-4.95-2.88-6.98c-2.58-3.43-6.52-4.93-10.74-4.87
					c-1.93,0.03-1.93,3.01,0,3c3.71-0.02,8.09-1.81,8.59-5.93c0.19-1.55-0.16-3.19-0.45-4.71c-0.25-1.26-0.6-2.57-1.3-3.66
					c-1.51-2.37-4.22-2.87-6.84-2.89c0.5,0.5,1,1,1.5,1.5c0.27-2.18,0.34-4.4,0.29-6.59c-0.09-3.57-0.45-7.65-2.44-10.72
					c-2.34-3.61-5.52-6.82-9.53-8.57c-3.2-1.4-6.46-1.69-9.89-1.69c-2.77,0-5.55,0-8.32,0c0.48,0.63,0.96,1.27,1.45,1.9
					c0.43-1.79,0.04-3.81-0.85-5.39c-2.32-4.12-7.69-5.1-11.99-5.25c-5.43-0.2-10.91,0.77-16.19,1.95c0.56,0.23,1.13,0.46,1.69,0.69
					c-4.05-5.46-12.38-6.58-18.61-5.95c-4.48,0.46-8.81,1.69-12.99,3.34c0.62,0.35,1.23,0.7,1.85,1.05
					c-0.59-2.68-1.9-5.38-3.53-7.57c-3.48-4.68-8.7-6.85-14.49-5.99c-5.15,0.77-9.89,3.48-14.09,6.43c0.68,0.18,1.37,0.36,2.05,0.54
					c-2.14-4.75-7.07-8.48-12.07-9.62c-8.58-1.97-16.24,3.02-22.13,8.79c-1.71,1.67-3.33,3.46-4.77,5.37
					c0.43-0.25,0.86-0.5,1.3-0.74c-5.17,0-10.34,0-15.51,0c-3.92,0-7.7-0.5-11.31,1.25c-4.09,1.98-6.65,5.91-7.41,10.33
					c0.91-0.12,1.83-0.24,2.74-0.36c-2.47-3.52-6.88-5.76-10.83-7.1c-4.68-1.58-9.74-2.03-14.65-1.81c-2.21,0.1-4.6,0.04-6.71,0.76
					c-1.41,0.48-2.77,1.36-3.13,2.9c-0.49,2.07,1.13,3.99,2.47,5.36c0.49-0.84,0.97-1.67,1.46-2.51c-2.38-0.65-4.83-1.09-7.28-1.42
					c-3.59-0.48-7.88-0.92-11.23,0.78c-2.46,1.24-4.37,4.17-5.85,6.4c-1.52,2.29-3.29,5.26-3,8.13c0.45,4.42,5.61,4.14,8.84,3.5
					c-0.63-0.48-1.27-0.96-1.9-1.45c0,6.85,0,13.69,0,20.54c0.5-0.5,1-1,1.5-1.5c-2.03-0.03-4.2,0.65-5.8,1.9
					c-1.34,1.05-2.25,2.56-2.57,4.24c-0.22,1.15,0.32,1.87,0.76,2.87c1.13,2.6,2.39,6.04,0.78,8.66c-1.42,2.32-2.23,5.05-1.92,7.78
					c0.56,4.88,4.13,8.49,8,11.16c-0.25-0.43-0.5-0.86-0.74-1.3c0,11.26,0,22.53,0,33.79c0,3.76,0,7.51,0,11.27
					c0,3.54,0,7.07,0,10.61c0,2.62-0.07,5.23,0.53,7.81c2.07,8.82,10.18,15.01,19.17,15.07c1.43,0.01,2.87,0,4.3,0
					c8.35,0,16.69,0,25.04,0c13.12,0,26.25,0,39.37,0c15.13,0,30.25,0,45.38,0c14.13,0,28.26,0,42.39,0c10.2,0,20.4,0,30.61,0
					c2.71,0,5.42,0,8.13,0c3.03,0,6-0.13,8.89-1.23c4.68-1.78,8.65-5.28,10.82-9.82c1.48-3.1,1.97-6.34,1.97-9.74
					c0-6.54,0-13.07,0-19.61c0-1.74,0-3.47,0-5.21c-0.75,0.43-1.5,0.86-2.26,1.3c3.27,1.98,7.95,2.77,11.28,0.55
					c3.41-2.27,4.59-6.57,5.08-10.41c0.2-1.54-0.41-1.9-1.45-2.74c-1.28-1.04-2.54-2.1-3.78-3.18c-1.82-1.59-3.59-3.24-5.26-4.99
					c-1.44-1.52-2.91-3.12-3.81-5.03c-0.83-1.74-3.42-0.22-2.59,1.51c1.75,3.67,5.17,6.68,8.13,9.36c2.03,1.85,4.13,3.64,6.3,5.32
					c-0.15-0.35-0.29-0.71-0.44-1.06c-0.3,2.62-0.88,5.65-2.68,7.7c-1.09,1.23-2.5,1.8-3.92,1.84c-1.37,0.04-2.44-0.24-3.85-0.75
					c-0.46-0.17-0.03,0.01-0.45-0.19c-0.18-0.08-0.36-0.17-0.54-0.26c-0.17-0.09-0.34-0.18-0.5-0.27c-0.98-0.59-2.26,0.17-2.26,1.3
					c0,5.87,0,11.74,0,17.61c0,2.68,0.01,5.37,0,8.05c-0.01,4.29-1.46,8.43-4.41,11.6c-3.58,3.85-8.34,5.35-13.45,5.35
					c-2.55,0-5.11,0-7.66,0c-10.49,0-20.98,0-31.48,0c-14.94,0-29.89,0-44.83,0c-15.83,0-31.65,0-47.48,0c-13.44,0-26.88,0-40.32,0
					c-7.5,0-15,0-22.5,0c-3.94,0-7.68-0.55-11.08-2.8c-4.43-2.93-7.22-7.99-7.38-13.29c-0.06-2.23-0.01-4.47-0.01-6.7
					c0-11.07,0-22.15,0-33.22c0-6.29,0-12.58,0-18.87c0-0.2,0.02-0.4,0-0.6c-0.11-1.19-1.12-1.58-1.98-2.25
					c-2.16-1.68-4.21-3.84-5-6.52c-0.51-1.72-0.42-3.49,0.15-5.19c0.57-1.71,1.85-3.05,2.14-4.87c0.56-3.51-0.87-7.38-2.49-10.44
					c0.05,0.39,0.1,0.77,0.15,1.16c0.3-1.83,1.27-3.17,3.03-3.81c0.98-0.36,1.59-0.47,2.5-0.46c0.81,0.01,1.5-0.7,1.5-1.5
					c0-6.85,0-13.69,0-20.54c0-1.03-0.95-1.63-1.9-1.45c-1.34,0.26-3.04,0.61-4.37,0.07c-0.54-0.22-0.72-0.55-0.71-1.21
					c0.02-2.1,1.58-4.55,2.82-6.37c1.18-1.74,2.76-4.28,4.78-5.13c2.77-1.17,6.37-0.7,9.25-0.31c2.27,0.31,4.55,0.75,6.76,1.35
					c1.45,0.39,2.5-1.44,1.46-2.51c-0.56-0.57-1.19-1.2-1.52-1.95c-0.05-0.11-0.16-0.5-0.16-0.49c0,0.02,0.06-0.21,0.01-0.15
					c0.12-0.16,0.2-0.29,0.62-0.49c0.24-0.11,0.83-0.31,1.29-0.41c1.76-0.4,4.11-0.39,6.1-0.44c6.73-0.16,14.27,1.14,19.53,5.27
					c0.67,0.53,1.31,1.11,1.89,1.73c0.15,0.17,0.3,0.34,0.45,0.52c0.19,0.22-0.25-0.35-0.05-0.06c0.66,0.94,2.5,1.03,2.74-0.36
					c0.6-3.51,2.32-6.53,5.5-8.26c0.84-0.45,1.67-0.78,2.64-1.01c0.23-0.06,0.46-0.09,0.69-0.14c0.08-0.01-0.54-0.01-0.18,0.04
					c1.78,0.25,3.77,0,5.56,0c3.11,0,6.23,0,9.34,0c2.34,0,4.67,0,7.01,0c0.89,0,1.37-0.03,2.08-0.74c0.2-0.2-0.28,0.34,0.07-0.09
					c0.26-0.32,0.51-0.63,0.78-0.95c4.41-5.23,10.51-11.09,17.59-12.02c6.17-0.81,12.78,2.82,15.35,8.53
					c0.31,0.7,1.44,0.97,2.05,0.54c5.34-3.74,13.01-8.24,19.69-5.38c1.87,0.8,3.57,2.28,4.7,3.74c0.59,0.76,1.1,1.58,1.55,2.42
					c0.2,0.36,0.38,0.73,0.55,1.1c0.08,0.17,0.16,0.35,0.24,0.52c0.03,0.08,0.14,0.34,0.02,0.03c0.04,0.11,0.09,0.21,0.13,0.32
					c0.33,0.84,0.64,1.7,0.83,2.58c0.16,0.73,1.12,1.33,1.85,1.05c5.91-2.32,12.48-4.11,18.89-3.17c1.85,0.27,3.74,0.79,5.38,1.58
					c0.64,0.31,1.26,0.66,1.85,1.05c0.24,0.16,0.48,0.32,0.71,0.5c0.24,0.18-0.14-0.12,0.07,0.06c0.11,0.09,0.22,0.18,0.33,0.28
					c0.31,0.27,0.6,0.55,0.88,0.84c0.15,0.16,0.53,0.67,0.1,0.09c0.42,0.57,0.99,0.85,1.69,0.69c4.51-1,9.11-1.81,13.75-1.86
					c2.62-0.03,5.34,0.16,7.79,1.14c0.18,0.07,0.6,0.27,0.95,0.46c0.18,0.1,0.36,0.21,0.53,0.32c0.09,0.06,0.58,0.42,0.32,0.21
					c0.28,0.22,0.54,0.46,0.78,0.71c0.11,0.12,0.22,0.24,0.32,0.37c-0.12-0.14,0-0.03,0.13,0.19c0.15,0.25,0.29,0.49,0.42,0.75
					c0.2,0.38-0.02-0.08,0.04,0.09c0.05,0.13,0.1,0.27,0.14,0.4c0.07,0.23,0.11,0.46,0.17,0.7c0.06,0.24,0.03,0.23,0-0.04
					c0.01,0.11,0.03,0.23,0.03,0.34c0.01,0.38-0.01,0.75-0.02,1.14c0,0.15,0.09-0.39-0.02,0.07c-0.23,0.94,0.45,1.9,1.45,1.9
					c2.21,0,4.42,0,6.63,0c2.74,0,5.48-0.13,8.16,0.62c2.11,0.6,4.11,1.61,5.83,2.99c1.66,1.33,2.8,2.99,4.12,4.61
					c2.02,2.46,2.31,6.16,2.43,9.21c0.09,2.37,0.02,4.79-0.27,7.15c-0.1,0.81,0.77,1.49,1.5,1.5c1.69,0.01,3.59,0.11,4.46,1.78
					c0.44,0.84,0.63,1.81,0.81,2.73c0.21,1.12,0.52,2.4,0.34,3.54c-0.25,1.54-1.65,2.34-3.03,2.75c-1.04,0.3-1.58,0.4-2.58,0.41
					c0,1,0,2,0,3c3.05-0.05,5.94,0.81,7.97,3.18c1.39,1.62,2.19,3.69,2.62,5.76c0.08,0.38,0.15,0.76,0.2,1.15
					c-0.01-0.09,0-0.08,0.02,0.19c0.01,0.14,0.03,0.27,0.04,0.41c0.03,0.8-0.28,1.52-0.58,2.35c-1.07,2.9-3.23,5.19-5.93,6.63
					c-1.02,0.54-2.1,0.95-3.21,1.24c-0.36,0.09-0.72,0.16-1.08,0.24c-0.33,0.07-0.47,0.06-0.06,0.02c-0.81,0.09-1.5,0.61-1.5,1.5
					c0,3.97,0,7.93,0,11.9C264.26,168.36,267.26,168.36,267.26,166.43z"/>
			</g>
		</g>
		<g class="st1">
			<path class="st2" d="M266.59,230.08l-0.83-13.92v-25.98c0,0,12.38,7.55,14.2-9.36c0,0-11.78-9.13-14.2-14.38v-11.9
				c0,0,10.27-1.11,12.38-11.58c0,0-0.3-12.89-12.38-12.59c0,0,7.85,0,7.1-6.04c-0.76-6.04-1.66-8.16-7.1-8.16
				c0,0,1.67-13.17-2.84-17.67c-0.01-0.01-0.01-0.01-0.02-0.02c-3.22-5.04-8.85-8.39-15.27-8.39h-10.27c0,0,3.32-13.69-27.19-6.85
				c0,0-7.85-10.68-29.91-1.92c0,0-5.14-23.76-29.91-6.24c0,0-4.17-9.36-15.08-9.36c-10.9,0-21.31,13.9-21.31,13.9H91.16
				c0,0-8.46,1.01-9.97,10.47c0,0-6.65-9.57-25.98-8.06c0,0-11.18-0.3-4.53,6.34c0,0-14.4-3.93-18.53,0
				c-4.13,3.93-13.39,17.22,0,14.5v5.34v15.2c0,0-6.21-0.13-6.98,5.37c0,0,4.06,7.62,1.64,11.24c-2.42,3.62-4.43,10.56,5.34,17.21
				v36v22.91c0,10.01,8.11,18.12,18.12,18.12h161.11"/>
			<g class="st3">
				<path d="M268.09,230.08c-0.28-4.72-0.76-9.46-0.83-14.18c-0.1-6.25,0-12.51,0-18.76c0-2.32,0-4.64,0-6.96
					c-0.75,0.43-1.5,0.86-2.26,1.3c1.79,1.09,3.98,1.74,6.06,1.87c4.36,0.27,7.53-2.58,9.06-6.47c0.57-1.44,0.91-2.95,1.13-4.48
					c0.16-1.08,0.4-2.06-0.48-2.84c-1.37-1.21-2.84-2.3-4.22-3.5c-2.15-1.87-4.26-3.81-6.19-5.9c-0.84-0.91-1.66-1.84-2.36-2.87
					c-0.24-0.34-0.5-1.09-0.81-1.35c-0.18-0.15,0.04,0.49,0.07,0.42c0.03-0.06,0-0.2,0-0.26c0.15-2.1,0-4.27,0-6.38
					c0-1.73,0-3.46,0-5.2c-0.5,0.5-1,1-1.5,1.5c5.23-0.58,10.27-4.01,12.52-8.78c0.62-1.32,1.35-2.96,1.35-4.44
					c0-0.69-0.14-1.42-0.25-2.1c-0.42-2.49-1.36-4.95-2.88-6.98c-2.58-3.43-6.52-4.93-10.74-4.87c-1.93,0.03-1.93,3.01,0,3
					c3.71-0.02,8.09-1.81,8.59-5.93c0.19-1.55-0.16-3.19-0.45-4.71c-0.25-1.26-0.6-2.57-1.3-3.66c-1.51-2.37-4.22-2.87-6.84-2.89
					c0.5,0.5,1,1,1.5,1.5c0.27-2.18,0.34-4.4,0.29-6.59c-0.09-3.57-0.45-7.65-2.44-10.72c-2.34-3.61-5.52-6.82-9.53-8.57
					c-3.2-1.4-6.46-1.69-9.89-1.69c-2.77,0-5.55,0-8.32,0c0.48,0.63,0.96,1.27,1.45,1.9c0.43-1.79,0.04-3.81-0.85-5.39
					c-2.32-4.12-7.69-5.1-11.99-5.25c-5.43-0.2-10.91,0.77-16.19,1.95c0.56,0.23,1.13,0.46,1.69,0.69
					c-4.05-5.46-12.38-6.58-18.61-5.95c-4.48,0.46-8.81,1.69-12.99,3.34c0.62,0.35,1.23,0.7,1.85,1.05
					c-0.59-2.68-1.9-5.38-3.53-7.57c-3.48-4.68-8.7-6.85-14.49-5.99c-5.15,0.77-9.89,3.48-14.09,6.43c0.68,0.18,1.37,0.36,2.05,0.54
					c-2.14-4.75-7.07-8.48-12.07-9.62c-8.58-1.97-16.24,3.02-22.13,8.79c-1.71,1.67-3.33,3.46-4.77,5.37
					c0.43-0.25,0.86-0.5,1.3-0.74c-5.17,0-10.34,0-15.51,0c-3.92,0-7.7-0.5-11.31,1.25c-4.09,1.98-6.65,5.91-7.41,10.33
					c0.91-0.12,1.83-0.24,2.74-0.36c-2.47-3.52-6.88-5.76-10.83-7.1c-4.68-1.58-9.74-2.03-14.65-1.81c-2.21,0.1-4.6,0.04-6.71,0.76
					c-1.41,0.48-2.77,1.36-3.13,2.9c-0.49,2.07,1.13,3.99,2.47,5.36c0.49-0.84,0.97-1.67,1.46-2.51c-2.38-0.65-4.83-1.09-7.28-1.42
					c-3.59-0.48-7.88-0.92-11.23,0.78c-2.46,1.24-4.37,4.17-5.85,6.4c-1.52,2.29-3.29,5.26-3,8.13c0.45,4.42,5.61,4.14,8.84,3.5
					c-0.63-0.48-1.27-0.96-1.9-1.45c0,6.85,0,13.69,0,20.54c0.5-0.5,1-1,1.5-1.5c-2.03-0.03-4.2,0.65-5.8,1.9
					c-1.34,1.05-2.25,2.56-2.57,4.24c-0.22,1.15,0.32,1.87,0.76,2.87c1.13,2.6,2.39,6.04,0.78,8.66c-1.42,2.32-2.23,5.05-1.92,7.78
					c0.56,4.88,4.13,8.49,8,11.16c-0.25-0.43-0.5-0.86-0.74-1.3c0,8.44,0,16.88,0,25.32c0,6.66,0,13.32,0,19.98
					c0,4.45-0.01,8.9,0,13.35c0.02,6.92,3.49,13.41,9.43,17.04c3.31,2.02,7.06,2.85,10.91,2.85c1.55,0,3.11,0,4.66,0
					c6.74,0,13.48,0,20.22,0c9.99,0,19.99,0,29.98,0c11.33,0,22.66,0,33.99,0c10.88,0,21.76,0,32.64,0c8.51,0,17.02,0,25.53,0
					c4.26,0,8.53,0,12.79,0c0.19,0,0.38,0,0.57,0c1.93,0,1.93-3,0-3c-3.44,0-6.89,0-10.33,0c-8.75,0-17.5,0-26.26,0
					c-11.65,0-23.29,0-34.94,0c-12.22,0-24.44,0-36.65,0c-10.44,0-20.88,0-31.32,0c-6.33,0-12.66,0-18.99,0
					c-1.1,0-2.21,0.03-3.32-0.01c-8.34-0.32-15.4-7.2-15.88-15.55c-0.25-4.36-0.03-8.79-0.03-13.16c0-3.66,0-7.31,0-10.97
					c0-9.75,0-19.49,0-29.24c0-1.87,0-3.75,0-5.62c0-0.32,0.03-0.65,0-0.97c-0.1-1-0.79-1.33-1.54-1.88
					c-1.04-0.76-2.02-1.63-2.9-2.58c-2.29-2.49-3.5-5.71-2.53-9.03c0.35-1.18,0.97-2.13,1.56-3.2c0.9-1.62,0.95-3.48,0.69-5.26
					c-0.36-2.52-1.28-5.03-2.47-7.27c0.05,0.39,0.1,0.77,0.15,1.16c0.3-1.83,1.27-3.17,3.03-3.81c0.98-0.36,1.59-0.47,2.5-0.46
					c0.81,0.01,1.5-0.7,1.5-1.5c0-6.85,0-13.69,0-20.54c0-1.03-0.95-1.63-1.9-1.45c-1.34,0.26-3.04,0.61-4.37,0.07
					c-0.54-0.22-0.72-0.55-0.71-1.21c0.02-2.1,1.58-4.55,2.82-6.37c1.18-1.74,2.76-4.28,4.78-5.13c2.77-1.17,6.37-0.7,9.25-0.31
					c2.27,0.31,4.55,0.75,6.76,1.35c1.45,0.39,2.5-1.44,1.46-2.51c-0.56-0.57-1.19-1.2-1.52-1.95c-0.05-0.11-0.16-0.5-0.16-0.49
					c0,0.02,0.06-0.21,0.01-0.15c0.12-0.16,0.2-0.29,0.62-0.49c0.24-0.11,0.83-0.31,1.29-0.41c1.76-0.4,4.11-0.39,6.1-0.44
					c6.73-0.16,14.27,1.14,19.53,5.27c0.67,0.53,1.31,1.11,1.89,1.73c0.15,0.17,0.3,0.34,0.45,0.52c0.19,0.22-0.25-0.35-0.05-0.06
					c0.66,0.94,2.5,1.03,2.74-0.36c0.6-3.51,2.32-6.53,5.5-8.26c0.84-0.45,1.67-0.78,2.64-1.01c0.23-0.06,0.46-0.09,0.69-0.14
					c0.08-0.01-0.54-0.01-0.18,0.04c1.78,0.25,3.77,0,5.56,0c3.11,0,6.23,0,9.34,0c2.34,0,4.67,0,7.01,0c0.89,0,1.37-0.03,2.08-0.74
					c0.2-0.2-0.28,0.34,0.07-0.09c0.26-0.32,0.51-0.63,0.78-0.95c4.41-5.23,10.51-11.09,17.59-12.02
					c6.17-0.81,12.78,2.82,15.35,8.53c0.31,0.7,1.44,0.97,2.05,0.54c5.34-3.74,13.01-8.24,19.69-5.38c1.87,0.8,3.57,2.28,4.7,3.74
					c0.59,0.76,1.1,1.58,1.55,2.42c0.2,0.36,0.38,0.73,0.55,1.1c0.08,0.17,0.16,0.35,0.24,0.52c0.03,0.08,0.14,0.34,0.02,0.03
					c0.04,0.11,0.09,0.21,0.13,0.32c0.33,0.84,0.64,1.7,0.83,2.58c0.16,0.73,1.12,1.33,1.85,1.05c5.91-2.32,12.48-4.11,18.89-3.17
					c1.85,0.27,3.74,0.79,5.38,1.58c0.64,0.31,1.26,0.66,1.85,1.05c0.24,0.16,0.48,0.32,0.71,0.5c0.24,0.18-0.14-0.12,0.07,0.06
					c0.11,0.09,0.22,0.18,0.33,0.28c0.31,0.27,0.6,0.55,0.88,0.84c0.15,0.16,0.53,0.67,0.1,0.09c0.42,0.57,0.99,0.85,1.69,0.69
					c4.51-1,9.11-1.81,13.75-1.86c2.62-0.03,5.34,0.16,7.79,1.14c0.18,0.07,0.6,0.27,0.95,0.46c0.18,0.1,0.36,0.21,0.53,0.32
					c0.09,0.06,0.58,0.42,0.32,0.21c0.28,0.22,0.54,0.46,0.78,0.71c0.11,0.12,0.22,0.24,0.32,0.37c-0.12-0.14,0-0.03,0.13,0.19
					c0.15,0.25,0.29,0.49,0.42,0.75c0.2,0.38-0.02-0.08,0.04,0.09c0.05,0.13,0.1,0.27,0.14,0.4c0.07,0.23,0.11,0.46,0.17,0.7
					c0.06,0.24,0.03,0.23,0-0.04c0.01,0.11,0.03,0.23,0.03,0.34c0.01,0.38-0.01,0.75-0.02,1.14c0,0.15,0.09-0.39-0.02,0.07
					c-0.23,0.94,0.45,1.9,1.45,1.9c2.21,0,4.42,0,6.63,0c2.74,0,5.48-0.13,8.16,0.62c2.11,0.6,4.11,1.61,5.83,2.99
					c1.66,1.33,2.8,2.99,4.12,4.61c2.02,2.46,2.31,6.16,2.43,9.21c0.09,2.37,0.02,4.79-0.27,7.15c-0.1,0.81,0.77,1.49,1.5,1.5
					c1.69,0.01,3.59,0.11,4.46,1.78c0.44,0.84,0.63,1.81,0.81,2.73c0.21,1.12,0.52,2.4,0.34,3.54c-0.25,1.54-1.65,2.34-3.03,2.75
					c-1.04,0.3-1.58,0.4-2.58,0.41c0,1,0,2,0,3c3.05-0.05,5.94,0.81,7.97,3.18c1.39,1.62,2.19,3.69,2.62,5.76
					c0.08,0.38,0.15,0.76,0.2,1.15c-0.01-0.09,0-0.08,0.02,0.19c0.01,0.14,0.03,0.27,0.04,0.41c0.03,0.8-0.28,1.53-0.58,2.35
					c-1.07,2.9-3.23,5.19-5.93,6.63c-1.02,0.54-2.1,0.95-3.21,1.24c-0.36,0.09-0.72,0.16-1.08,0.24c-0.33,0.07-0.47,0.06-0.06,0.02
					c-0.81,0.09-1.5,0.61-1.5,1.5c0,3.82-0.08,7.66,0,11.48c0.05,2.1,2.07,4.13,3.39,5.62c2.09,2.35,4.41,4.49,6.78,6.55
					c1.46,1.27,2.94,2.51,4.47,3.69c-0.15-0.35-0.29-0.71-0.44-1.06c-0.3,2.62-0.88,5.65-2.68,7.7c-1.09,1.23-2.5,1.8-3.92,1.84
					c-1.37,0.04-2.44-0.24-3.85-0.75c-0.46-0.17-0.03,0.01-0.45-0.19c-0.18-0.08-0.36-0.17-0.54-0.26c-0.17-0.09-0.34-0.18-0.5-0.27
					c-0.98-0.59-2.26,0.17-2.26,1.3c0,10.11-0.34,20.26,0.26,30.35c0.19,3.18,0.38,6.37,0.57,9.55
					C265.2,232,268.21,232.01,268.09,230.08L268.09,230.08z"/>
			</g>
		</g>
		<g>
			<g>
				<path d="M49.56,185.95c0,4.38,0,8.77,0,13.15c0,0.91-0.09,1.84,0.15,2.72c0.4,1.51,1.27,2.9,2.28,4.06
					c4.15,4.77,11.2,5.56,17.14,5.35c7.07-0.25,14.12-1.36,21.12-2.34c18.43-2.57,36.92-5.35,55.58-4.86
					c18.74,0.5,37.41,2.22,56.13,3.15c5.63,0.28,11.17,0.45,16.76-0.4c6.24-0.95,12.37-3.59,13.94-10.31c0.46-1.97,0.52-4,0.4-6.01
					c-0.09-1.44-2.34-1.45-2.25,0c0.21,3.39-0.1,7.1-2.45,9.76c-1.93,2.18-4.73,3.23-7.5,3.87c-5.27,1.21-10.63,1.18-16,0.97
					c-17.56-0.7-35.06-2.38-52.62-3.07c-9.21-0.36-18.34-0.32-27.53,0.43c-9.07,0.74-18.09,1.93-27.1,3.18
					c-7.62,1.06-15.23,2.25-22.89,2.98c-6.01,0.57-12.88,1.19-18.31-1.99c-1.73-1.01-3.17-2.42-4.08-4.21
					c-0.22-0.42-0.31-0.72-0.48-1.29c-0.03-0.1-0.05-0.21-0.07-0.32c0.01,0.06,0.01,0.42,0.03,0.08c0.17-1.97,0-4.03,0-6
					c0-2.51,0-5.02,0-7.53c0-0.46,0-0.92,0-1.38C51.81,184.5,49.56,184.5,49.56,185.95L49.56,185.95z"/>
			</g>
		</g>
		<path class="st4" d="M129.68,186.55h15.71c0,0,19.41-1.59,2.04,11.03c0,0-8.84,6.27-20.01-1.36
			C127.41,196.22,113.97,186.55,129.68,186.55z"/>
		<ellipse class="st5" cx="75.91" cy="162.38" rx="11.33" ry="14.35"/>
		<ellipse class="st6" cx="71.23" cy="160.72" rx="5.74" ry="8.16"/>
		<ellipse class="st5" cx="205.32" cy="159.11" rx="13.72" ry="16.16"/>
		<ellipse class="st6" cx="199.65" cy="157.24" rx="6.95" ry="9.19"/>
	</g>
</g>
<g id="Layer_2">
</g>
</svg>
