<svg xmlns="http://www.w3.org/2000/svg" xmlns:xlink="http://www.w3.org/1999/xlink" viewBox="0 0 374.13 161.25"><defs><style>.cls-1{fill:#fff;}.cls-1,.cls-2{stroke:#1a1a1a;stroke-miterlimit:10;}.cls-2{fill:none;}.cls-3{fill:#1a1a1a;}.cls-4{fill:#7420bb;}.cls-5{fill:url(#Degradado_sin_nombre_3);}</style><linearGradient id="Degradado_sin_nombre_3" x1="109.54" y1="23.83" x2="109.54" y2="96.62" gradientUnits="userSpaceOnUse"><stop offset="0" stop-color="#7420bb"/><stop offset="0.09" stop-color="#7f1faa"/><stop offset="0.27" stop-color="#9d1e7f"/><stop offset="0.46" stop-color="#bf1c4b"/><stop offset="0.88" stop-color="#e36124"/></linearGradient></defs><title>LogoCtrlDev</title><g id="Capa_2" data-name="Capa 2"><g id="Letras"><path class="cls-1" d="M19.25,99.85,1.11,132.48l.35-.65a6.52,6.52,0,0,0,4,9.71l69.79,19A6.9,6.9,0,0,0,82.44,158l36.47-47a6.68,6.68,0,0,0,.43-7.77h0l-18.22-23.9"/><path class="cls-1" d="M71.26,118.76,22.63,105.44a4.46,4.46,0,0,1-2.42-7.22L45.24,69A4.85,4.85,0,0,1,50,67.39L99,78.25a4.36,4.36,0,0,1,2.37,7l-25.1,31.81A4.83,4.83,0,0,1,71.26,118.76Z"/><path class="cls-2" d="M73.61,118.78,79,160.43Z"/><path class="cls-3" d="M50.44,87.65A15,15,0,0,1,45.6,87c-4.67-1.4-6.57-4.79-3.54-9.24a13,13,0,0,1,14.38-4.82,8.58,8.58,0,0,1,3.74,1.89l-1.7,1.36a7.47,7.47,0,0,0-3.12-1.65,9.65,9.65,0,0,0-10.93,3.85c-2.32,3.33-1.42,6.12,2.64,7.33a12.21,12.21,0,0,0,3.93.52Z"/><path class="cls-3" d="M65.22,77.1,62.92,80l3.28,1-1.11,1.38-3.26-1-4.1,5.23c-.92,1.16-1,1.94.22,2.31a7.09,7.09,0,0,0,1.36.27L58.4,90.5a7.34,7.34,0,0,1-2.11-.35c-1-.31-1.64-.8-1.81-1.41s.18-1.58,1-2.69l4.09-5.29-1.93-.57,1-1.39,2,.57,1.89-2.44Z"/><path class="cls-3" d="M66.26,84.84c.95-1.15,1.74-2.16,2.42-3.11l2,.6-1.53,2,.1,0a6.63,6.63,0,0,1,5.32-1.13,2.4,2.4,0,0,1,.6.26l-1.45,1.69a3.46,3.46,0,0,0-.73-.29,5.49,5.49,0,0,0-5,1.36,8.19,8.19,0,0,0-.78.78l-4.14,5L61,91.31Z"/><path class="cls-3" d="M81.57,79.59l2.37.7L71.42,94.44l-2.2-.66Z"/><polygon class="cls-4" points="122.97 13.44 122.97 8.96 95.81 8.96 95.81 19.29 122.97 13.44"/><path class="cls-5" d="M123.12,40.56V23.83L96,29.68V40.56H67.77V67.72H96v9.34l3.22.71a4.78,4.78,0,0,1,3,2.25l12.66,16.6h8.25V67.72h28.19V40.56Z"/><polygon class="cls-4" points="95.81 22.04 95.81 26.52 122.97 20.66 122.97 16.18 95.81 22.04"/><path class="cls-3" d="M232.49,31.19H193.41a21,21,0,0,1,3.54,3.2,26.8,26.8,0,0,1,6.76,18.29q0,12.39-7.62,19.58a26.17,26.17,0,0,1-18.69,7.19H165.79V.4H132.94v38H153.7V69.21H132.94v37.34h48.15c17,0,29.08-3.18,39.71-13.11s14.69-24.1,14.69-40C235.49,45.61,234.83,38.13,232.49,31.19Z"/><path class="cls-3" d="M374.13,0,340.21,106.15H306c-5.3-14.66-24.21-66-24.21-66l34.9,0,6.6,24.53L340.86,0Z"/><polyline class="cls-3" points="232.72 26.7 313.45 26.7 304.96 0.4 169.39 0.4 169.39 26.7 232.72 26.7"/><rect class="cls-3" x="239.3" y="40.12" width="74.58" height="26.37"/><path class="cls-3" d="M300.54,106.49H207.31c12.89-6.4,23.61-14.29,27.76-26.7h57.2Z"/></g></g></svg>